<svg width="148" height="60" viewBox="0 0 148 60" fill="none" xmlns="http://www.w3.org/2000/svg">
<path fill-rule="evenodd" clip-rule="evenodd" d="M5.72769 5.59546C5.92654 5.59546 6.0872 5.75766 6.0872 5.95679V19.2999H6.16789C6.30262 18.9219 6.53317 18.541 6.85738 18.1601C7.18375 17.7792 7.57424 17.4382 8.03533 17.1391C8.49499 16.8408 9.03606 16.5968 9.65782 16.4049C10.281 16.2159 10.9568 16.121 11.6874 16.121C13.2299 16.121 14.4741 16.3578 15.4215 16.8336C16.3682 17.3086 17.1053 17.9682 17.6326 18.8118C18.16 19.6561 18.5188 20.6467 18.709 21.7893C18.897 22.932 18.9921 24.1695 18.9921 25.5011V36.0716C18.9921 36.2707 18.8315 36.4329 18.6326 36.4329H13.2645C13.0663 36.4329 12.905 36.2707 12.905 36.0716V26.7241C12.905 26.1535 12.8855 25.5612 12.8444 24.9508C12.8034 24.3389 12.6823 23.7734 12.4792 23.2585C12.276 22.7408 11.9655 22.3201 11.5454 21.9935C11.1254 21.6677 10.5238 21.5033 9.73923 21.5033C8.95465 21.5033 8.3192 21.6474 7.83216 21.932C7.34585 22.218 6.97265 22.5989 6.71689 23.0739C6.45896 23.5496 6.29037 24.0876 6.20824 24.685C6.12827 25.2846 6.0872 25.9095 6.0872 26.5619V36.0716C6.0872 36.2707 5.92654 36.4329 5.72769 36.4329H0.359512C0.160663 36.4329 0 36.2707 0 36.0716V5.95679C0 5.75766 0.160663 5.59546 0.359512 5.59546H5.72769Z" fill="#47642E"/>
<path fill-rule="evenodd" clip-rule="evenodd" d="M34.0892 39.6542C33.6829 40.7143 33.2903 41.6535 32.9113 42.4695C32.5323 43.2842 32.0532 43.9706 31.4711 44.5282C30.8889 45.0857 30.1519 45.5072 29.2593 45.7932C28.3666 46.0799 27.1894 46.2211 25.7297 46.2211C24.2679 46.2211 22.8543 46.0097 21.4883 45.5854C21.3147 45.5311 21.2066 45.3515 21.2354 45.1712L21.9249 40.9091C21.9617 40.6832 22.1937 40.5594 22.4069 40.639C23.1966 40.9352 24.0064 41.0829 24.8363 41.0829C25.5114 41.0829 26.0662 41.0061 26.4999 40.857C26.9322 40.7071 27.2909 40.4906 27.5748 40.2045C27.8601 39.9207 28.0964 39.5717 28.2859 39.164C28.474 38.7578 28.6771 38.2799 28.894 37.7375L29.3414 36.5942L20.9148 17.1143C20.8118 16.8754 20.9862 16.6089 21.2448 16.6089H27.0258C27.1735 16.6089 27.3068 16.7001 27.3608 16.8392L32.3443 29.7014H32.425L36.6851 16.8565C36.7341 16.7088 36.871 16.6089 37.0259 16.6089H42.492C42.7449 16.6089 42.9185 16.8645 42.8263 17.1013L34.0892 39.6542Z" fill="#47642E"/>
<path fill-rule="evenodd" clip-rule="evenodd" d="M43.093 45.7415V39.3687H36.8999L36.4338 40.5714C36.0123 41.6713 35.5944 42.6735 35.1917 43.5388C34.8019 44.3758 34.2969 45.092 33.7371 45.7415H43.093Z" fill="#F58220"/>
<path fill-rule="evenodd" clip-rule="evenodd" d="M128.335 45.7504L116.733 14.9672L106.72 39.3688H54.2151V45.7417L110.983 45.7648L116.664 31.5166L128.522 60L147.388 0L128.335 45.7504Z" fill="#F58220"/>
<path fill-rule="evenodd" clip-rule="evenodd" d="M19.6239 39.3684H0.365127C0.166279 39.3684 0.00561523 39.5299 0.00561523 39.7297V45.3799C0.00561523 45.5798 0.166279 45.7412 0.365127 45.7412H18.5929L19.6239 39.3684Z" fill="#F58220"/>
<path fill-rule="evenodd" clip-rule="evenodd" d="M51.2103 26.5195C51.2103 28.0155 51.6375 29.2255 52.4898 30.1516C53.3414 31.0755 54.5381 31.5382 56.0813 31.5382C57.6231 31.5382 58.8198 31.0755 59.6728 30.1516C60.5252 29.2255 60.9509 28.0155 60.9509 26.5195C60.9509 25.0256 60.5252 23.8164 59.6728 22.8895C58.8198 21.9663 57.6231 21.5036 56.0813 21.5036C54.5381 21.5036 53.3414 21.9663 52.4898 22.8895C51.6375 23.8164 51.2103 25.0256 51.2103 26.5195ZM45.9696 16.6087H50.8508C51.0489 16.6087 51.2103 16.7709 51.2103 16.97V19.2205H51.2917C51.5359 18.8671 51.8529 18.5058 52.2456 18.1401C52.6368 17.7716 53.0979 17.4378 53.6253 17.1394C54.1526 16.8404 54.7276 16.5964 55.3508 16.4045C55.9718 16.2155 56.6346 16.1213 57.3378 16.1213C58.7996 16.1213 60.1253 16.3726 61.3162 16.8751C62.5064 17.3784 63.528 18.0851 64.3804 18.996C65.2319 19.9077 65.8876 20.988 66.3479 22.2378C66.8076 23.4898 67.0381 24.8613 67.0381 26.358C67.0381 27.7439 66.8278 29.069 66.4092 30.3333C65.9891 31.5983 65.394 32.7207 64.6231 33.6997C63.8523 34.678 62.9113 35.4593 61.8033 36.0443C60.693 36.6294 59.4351 36.9205 58.028 36.9205C56.7564 36.9205 55.5734 36.7236 54.4776 36.3304C53.3825 35.9372 52.4819 35.2623 51.7787 34.3116H51.698V45.3694C51.698 45.5692 51.5374 45.7307 51.3385 45.7307H45.9696C45.7708 45.7307 45.6101 45.5692 45.6101 45.3694V16.97C45.6101 16.7709 45.7708 16.6087 45.9696 16.6087Z" fill="#47642E"/>
<path fill-rule="evenodd" clip-rule="evenodd" d="M83.8911 24.2764C83.9185 23.2431 83.5806 22.3597 82.8767 21.6255C82.1735 20.8905 81.2664 20.5248 80.1584 20.5248C79.4811 20.5248 78.8867 20.6342 78.3723 20.8514C77.8586 21.0701 77.4192 21.3467 77.0539 21.6878C76.6879 22.0288 76.4047 22.422 76.2016 22.8702C75.9984 23.3177 75.8831 23.7884 75.8558 24.2764H83.8911ZM88.7319 32.7731C88.9012 32.8983 88.9343 33.1482 88.7989 33.3089C87.8673 34.4146 86.7167 35.2785 85.3529 35.9026C83.8637 36.5819 82.3219 36.9207 80.7268 36.9207C79.211 36.9207 77.7844 36.6767 76.4458 36.1865C75.1057 35.6985 73.9422 34.999 72.9544 34.0873C71.9674 33.1764 71.1893 32.0808 70.6209 30.8042C70.0539 29.5247 69.7686 28.0975 69.7686 26.5197C69.7686 24.9433 70.0539 23.5176 70.6209 22.2381C71.1893 20.9608 71.9674 19.8652 72.9544 18.9543C73.9422 18.0426 75.1057 17.3431 76.4458 16.8529C77.7844 16.3649 79.211 16.1208 80.7268 16.1208C82.1324 16.1208 83.4105 16.3649 84.5611 16.8529C85.7103 17.3431 86.6851 18.0426 87.4826 18.9543C88.2816 19.8652 88.8969 20.9608 89.3292 22.2381C89.7629 23.5176 89.9797 24.9433 89.9797 26.5197V28.0751C89.9797 28.2742 89.8191 28.4364 89.6202 28.4364H76.3255C76.0885 28.4364 75.9047 28.6696 75.9703 28.8977C76.2477 29.8542 76.7369 30.6312 77.4386 31.2322C78.2513 31.9244 79.252 32.2727 80.4422 32.2727C81.443 32.2727 82.2888 32.0461 82.9783 31.5979C83.5762 31.2097 84.1072 30.7246 84.5726 30.1424C84.6937 29.9918 84.9069 29.9556 85.0618 30.07L88.7319 32.7731Z" fill="#47642E"/>
<path fill-rule="evenodd" clip-rule="evenodd" d="M94.0595 16.6091H99.4276C99.6265 16.6091 99.7871 16.7706 99.7871 16.9705V19.7909H99.8678C100.518 18.5686 101.288 17.6497 102.181 17.0371C103.074 16.4252 104.196 16.1211 105.549 16.1211C105.902 16.1211 106.253 16.1334 106.605 16.1609C106.956 16.1884 107.281 16.2435 107.578 16.3224V21.9118C107.146 21.7771 106.72 21.675 106.3 21.6055C105.88 21.5381 105.441 21.5034 104.981 21.5034C103.818 21.5034 102.898 21.6677 102.222 21.9943C101.546 22.3201 101.024 22.7756 100.659 23.3607C100.295 23.9458 100.057 24.6452 99.9493 25.4591C99.8405 26.2759 99.7871 27.1745 99.7871 28.1528V36.0716C99.7871 36.2707 99.6265 36.4329 99.4276 36.4329H94.0595C93.8606 36.4329 93.7 36.2707 93.7 36.0716V16.9705C93.7 16.7706 93.8606 16.6091 94.0595 16.6091Z" fill="#47642E"/>
</svg>
