<svg width="18" height="14" viewBox="0 0 18 14" fill="none" xmlns="http://www.w3.org/2000/svg">
<path d="M3.83337 4.44499C3.83337 4.31239 3.88605 4.18521 3.97982 4.09144C4.07359 3.99767 4.20077 3.94499 4.33337 3.94499H12C12.1932 3.94499 12.3845 3.90695 12.5629 3.83303C12.7414 3.75912 12.9035 3.65078 13.0401 3.5142C13.1767 3.37762 13.285 3.21547 13.3589 3.03702C13.4328 2.85857 13.4709 2.66731 13.4709 2.47416C13.4709 2.28101 13.4328 2.08975 13.3589 1.9113C13.285 1.73285 13.1767 1.5707 13.0401 1.43412C12.9035 1.29754 12.7414 1.1892 12.5629 1.11529C12.3845 1.04137 12.1932 1.00333 12 1.00333H10.25C10.1174 1.00333 9.99026 0.950648 9.89649 0.85688C9.80272 0.763112 9.75004 0.635935 9.75004 0.503326C9.75004 0.370718 9.80272 0.243541 9.89649 0.149773C9.99026 0.0560049 10.1174 0.00332642 10.25 0.00332642H12C12.6553 0.00332643 13.2838 0.263645 13.7472 0.727017C14.2106 1.19039 14.4709 1.81885 14.4709 2.47416C14.4709 3.12947 14.2106 3.75793 13.7472 4.2213C13.2838 4.68467 12.6553 4.94499 12 4.94499H4.33337C4.20077 4.94499 4.07359 4.89231 3.97982 4.79855C3.88605 4.70478 3.83337 4.5776 3.83337 4.44499ZM14.9459 9.05583H7.63004C7.49743 9.05583 7.37026 9.10851 7.27649 9.20227C7.18272 9.29604 7.13004 9.42322 7.13004 9.55583C7.13004 9.68844 7.18272 9.81561 7.27649 9.90938C7.37026 10.0031 7.49743 10.0558 7.63004 10.0558H14.945C15.3351 10.0558 15.7092 10.2108 15.9851 10.4866C16.2609 10.7625 16.4159 11.1366 16.4159 11.5267C16.4159 11.9167 16.2609 12.2909 15.9851 12.5667C15.7092 12.8425 15.3351 12.9975 14.945 12.9975H14.0284C13.8958 12.9975 13.7686 13.0502 13.6748 13.1439C13.5811 13.2377 13.5284 13.3649 13.5284 13.4975C13.5284 13.6301 13.5811 13.7573 13.6748 13.851C13.7686 13.9448 13.8958 13.9975 14.0284 13.9975H14.945C15.6003 13.9975 16.2288 13.7372 16.6922 13.2738C17.1556 12.8104 17.4159 12.182 17.4159 11.5267C17.4159 10.8714 17.1556 10.2429 16.6922 9.77952C16.2288 9.31615 15.6003 9.05583 14.945 9.05583H14.9459ZM11.9642 6.99999C11.9642 6.86739 11.9115 6.74021 11.8178 6.64644C11.724 6.55267 11.5968 6.49999 11.4642 6.49999H1.08337C0.950766 6.49999 0.823589 6.55267 0.729821 6.64644C0.636053 6.74021 0.583374 6.86739 0.583374 6.99999C0.583374 7.1326 0.636053 7.25978 0.729821 7.35355C0.823589 7.44732 0.950766 7.49999 1.08337 7.49999H11.4642C11.5968 7.49999 11.724 7.44732 11.8178 7.35355C11.9115 7.25978 11.9642 7.1326 11.9642 6.99999Z" fill="white"/>
</svg>
