<svg width="18" height="18" viewBox="0 0 18 18" fill="none" xmlns="http://www.w3.org/2000/svg">
<path d="M14.9408 1.36333H13.905V0.666664C13.905 0.601003 13.892 0.535985 13.8669 0.475322C13.8418 0.41466 13.805 0.35954 13.7585 0.313111C13.7121 0.266681 13.657 0.229852 13.5963 0.204724C13.5357 0.179597 13.4706 0.166664 13.405 0.166664C13.3393 0.166664 13.2743 0.179597 13.2136 0.204724C13.153 0.229852 13.0978 0.266681 13.0514 0.313111C13.005 0.35954 12.9682 0.41466 12.943 0.475322C12.9179 0.535985 12.905 0.601003 12.905 0.666664V1.36333H5.09414V0.666664C5.09414 0.534056 5.04146 0.406879 4.94769 0.313111C4.85393 0.219343 4.72675 0.166664 4.59414 0.166664C4.46153 0.166664 4.33436 0.219343 4.24059 0.313111C4.14682 0.406879 4.09414 0.534056 4.09414 0.666664V1.36333H3.05914C2.41222 1.36399 1.79198 1.62128 1.33453 2.07872C0.877086 2.53617 0.619802 3.15641 0.619141 3.80333V15.3933C0.619802 16.0403 0.877086 16.6605 1.33453 17.1179C1.79198 17.5754 2.41222 17.8327 3.05914 17.8333H14.9408C15.5877 17.8327 16.208 17.5754 16.6654 17.1179C17.1229 16.6605 17.3801 16.0403 17.3808 15.3933V3.80333C17.3801 3.15641 17.1229 2.53617 16.6654 2.07872C16.208 1.62128 15.5877 1.36399 14.9408 1.36333ZM16.3816 15.3933C16.3812 15.7753 16.2292 16.1414 15.9591 16.4114C15.689 16.6814 15.3227 16.8331 14.9408 16.8333H3.05914C2.67722 16.8331 2.31099 16.6814 2.04086 16.4114C1.77072 16.1414 1.61875 15.7753 1.61831 15.3933V6.40166H16.3808L16.3816 15.3933ZM16.3816 5.40166H1.61914V3.80333C1.61958 3.42155 1.77144 3.05554 2.04139 2.78558C2.31135 2.51563 2.67736 2.36377 3.05914 2.36333H4.09497V2.995C4.09497 3.12761 4.14765 3.25478 4.24142 3.34855C4.33519 3.44232 4.46237 3.495 4.59497 3.495C4.72758 3.495 4.85476 3.44232 4.94853 3.34855C5.0423 3.25478 5.09497 3.12761 5.09497 2.995V2.36333H12.9058V2.995C12.9058 3.12761 12.9585 3.25478 13.0523 3.34855C13.146 3.44232 13.2732 3.495 13.4058 3.495C13.5384 3.495 13.6656 3.44232 13.7594 3.34855C13.8531 3.25478 13.9058 3.12761 13.9058 2.995V2.36333H14.9416C15.3236 2.36355 15.6898 2.51531 15.9599 2.78529C16.2301 3.05527 16.382 3.42141 16.3825 3.80333L16.3816 5.40166ZM5.67747 12.4092C5.58365 12.3152 5.53099 12.1879 5.53107 12.0551C5.53115 11.9224 5.58396 11.7951 5.67789 11.7012C5.77182 11.6074 5.89918 11.5548 6.03194 11.5548C6.1647 11.5549 6.29199 11.6077 6.38581 11.7017L7.61164 12.9283L11.6166 8.92833C11.7107 8.83588 11.8375 8.78434 11.9694 8.78496C12.1013 8.78557 12.2276 8.83828 12.3209 8.93161C12.4141 9.02493 12.4666 9.15131 12.4671 9.28321C12.4676 9.41512 12.4159 9.54186 12.3233 9.63583L7.96581 13.9933C7.91937 14.0398 7.86423 14.0767 7.80353 14.1019C7.74283 14.127 7.67777 14.14 7.61206 14.14C7.54635 14.14 7.48129 14.127 7.42059 14.1019C7.35989 14.0767 7.30474 14.0398 7.25831 13.9933L5.67747 12.4092Z" fill="white"/>
</svg>
