<svg width="18" height="18" viewBox="0 0 18 18" fill="none" xmlns="http://www.w3.org/2000/svg">
<path d="M14.5747 1.21557H13.5499V0.534776C13.5499 0.392977 13.4936 0.256986 13.3933 0.156719C13.293 0.0564516 13.157 0.00012207 13.0152 0.00012207C12.8734 0.00012207 12.7375 0.0564516 12.6372 0.156719C12.5369 0.256986 12.4806 0.392977 12.4806 0.534776V1.21557H4.5998V0.534776C4.5998 0.392977 4.54347 0.256986 4.44321 0.156719C4.34294 0.0564516 4.20695 0.00012207 4.06515 0.00012207C3.92335 0.00012207 3.78736 0.0564516 3.68709 0.156719C3.58682 0.256986 3.53049 0.392977 3.53049 0.534776V1.21557H2.50485C1.84066 1.21651 1.20395 1.48084 0.734381 1.95058C0.264809 2.42032 0.000707174 3.05712 0 3.72131V15.4953C0.000942903 16.1593 0.265149 16.7959 0.734696 17.2654C1.20424 17.735 1.84081 17.9992 2.50485 18.0001H14.5747C15.2391 17.9997 15.8761 17.7355 16.346 17.2657C16.8158 16.7959 17.0799 16.1588 17.0804 15.4944V3.72131C17.0799 3.05689 16.8158 2.41982 16.346 1.95C15.8761 1.48019 15.2391 1.21604 14.5747 1.21557ZM16.0111 15.4944C16.0106 15.8752 15.8591 16.2403 15.5898 16.5096C15.3206 16.7789 14.9555 16.9303 14.5747 16.9308H2.50485C2.12427 16.9303 1.7594 16.7789 1.49029 16.5098C1.22117 16.2407 1.06978 15.8759 1.06931 15.4953V6.38745H16.012L16.0111 15.4944ZM16.0111 5.31814H1.06931V3.72131C1.06954 3.34057 1.22083 2.97548 1.48997 2.70617C1.75911 2.43686 2.12411 2.28535 2.50485 2.28487H3.53049V2.89973C3.53049 3.04152 3.58682 3.17752 3.68709 3.27778C3.78736 3.37805 3.92335 3.43438 4.06515 3.43438C4.20695 3.43438 4.34294 3.37805 4.44321 3.27778C4.54347 3.17752 4.5998 3.04152 4.5998 2.89973V2.28487H12.4815V2.89973C12.4815 3.04152 12.5378 3.17752 12.6381 3.27778C12.7383 3.37805 12.8743 3.43438 13.0161 3.43438C13.1579 3.43438 13.2939 3.37805 13.3942 3.27778C13.4945 3.17752 13.5508 3.04152 13.5508 2.89973V2.28487H14.5755C14.9562 2.28535 15.3212 2.43671 15.5904 2.7058C15.8597 2.97489 16.0113 3.33975 16.012 3.72042L16.0111 5.31814ZM3.02881 9.6426C3.02881 9.4223 3.09414 9.20694 3.21653 9.02377C3.33892 8.8406 3.51289 8.69783 3.71642 8.61352C3.91995 8.52922 4.14391 8.50716 4.35998 8.55014C4.57604 8.59312 4.77452 8.6992 4.93029 8.85498C5.08607 9.01075 5.19215 9.20923 5.23513 9.42529C5.27811 9.64136 5.25605 9.86532 5.17175 10.0689C5.08744 10.2724 4.94467 10.4463 4.7615 10.5687C4.57833 10.6911 4.36297 10.7565 4.14267 10.7565C3.84726 10.7565 3.56394 10.6391 3.35505 10.4302C3.14616 10.2213 3.02881 9.93801 3.02881 9.6426ZM7.42634 9.6426C7.42634 9.4223 7.49166 9.20694 7.61406 9.02377C7.73645 8.8406 7.91041 8.69783 8.11394 8.61352C8.31747 8.52922 8.54143 8.50716 8.7575 8.55014C8.97357 8.59312 9.17204 8.6992 9.32782 8.85498C9.48359 9.01075 9.58968 9.20923 9.63266 9.42529C9.67564 9.64136 9.65358 9.86532 9.56927 10.0689C9.48497 10.2724 9.3422 10.4463 9.15903 10.5687C8.97585 10.6911 8.7605 10.7565 8.5402 10.7565C8.24478 10.7565 7.96147 10.6391 7.75258 10.4302C7.54369 10.2213 7.42634 9.93801 7.42634 9.6426ZM11.8239 9.6426C11.8239 9.4223 11.8892 9.20694 12.0116 9.02377C12.134 8.8406 12.3079 8.69783 12.5115 8.61352C12.715 8.52922 12.939 8.50716 13.155 8.55014C13.3711 8.59312 13.5696 8.6992 13.7253 8.85498C13.8811 9.01075 13.9872 9.20923 14.0302 9.42529C14.0732 9.64136 14.0511 9.86532 13.9668 10.0689C13.8825 10.2724 13.7397 10.4463 13.5566 10.5687C13.3734 10.6911 13.158 10.7565 12.9377 10.7565C12.6423 10.7565 12.359 10.6391 12.1501 10.4302C11.9412 10.2213 11.8239 9.93801 11.8239 9.6426ZM3.02881 13.2773C3.02881 13.057 3.09414 12.8417 3.21653 12.6585C3.33892 12.4753 3.51289 12.3326 3.71642 12.2483C3.91995 12.164 4.14391 12.1419 4.35998 12.1849C4.57604 12.2279 4.77452 12.334 4.93029 12.4897C5.08607 12.6455 5.19215 12.844 5.23513 13.06C5.27811 13.2761 5.25605 13.5001 5.17175 13.7036C5.08744 13.9071 4.94467 14.0811 4.7615 14.2035C4.57833 14.3259 4.36297 14.3912 4.14267 14.3912C3.84726 14.3912 3.56394 14.2739 3.35505 14.065C3.14616 13.8561 3.02881 13.5728 3.02881 13.2773ZM7.42634 13.2773C7.42598 13.057 7.49101 12.8414 7.61319 12.658C7.73537 12.4746 7.9092 12.3316 8.1127 12.247C8.31621 12.1624 8.54022 12.1401 8.75641 12.1829C8.97259 12.2257 9.17123 12.3316 9.32718 12.4873C9.48314 12.643 9.5894 12.8415 9.63252 13.0576C9.67565 13.2737 9.65369 13.4978 9.56944 13.7014C9.48519 13.905 9.34242 14.0791 9.15921 14.2016C8.976 14.3241 8.76057 14.3894 8.5402 14.3894C8.24509 14.3894 7.96205 14.2723 7.75321 14.0638C7.54437 13.8553 7.42681 13.5725 7.42634 13.2773ZM11.8239 13.2773C11.8239 13.057 11.8892 12.8417 12.0116 12.6585C12.134 12.4753 12.3079 12.3326 12.5115 12.2483C12.715 12.164 12.939 12.1419 13.155 12.1849C13.3711 12.2279 13.5696 12.334 13.7253 12.4897C13.8811 12.6455 13.9872 12.844 14.0302 13.06C14.0732 13.2761 14.0511 13.5001 13.9668 13.7036C13.8825 13.9071 13.7397 14.0811 13.5566 14.2035C13.3734 14.3259 13.158 14.3912 12.9377 14.3912C12.6423 14.3912 12.359 14.2739 12.1501 14.065C11.9412 13.8561 11.8239 13.5728 11.8239 13.2773Z" fill="#F7972E"/>
</svg>
