<svg width="20" height="12" viewBox="0 0 20 12" fill="none" xmlns="http://www.w3.org/2000/svg">
<path d="M17.3783 4.21167L15.2667 3.57C14.9381 3.47139 14.6366 3.29829 14.3858 3.06417L13.0658 1.8075C12.13 0.918035 10.8878 0.422712 9.59668 0.424167H8.25834C7.5401 0.426293 6.83045 0.580604 6.17618 0.876931C5.5219 1.17326 4.93785 1.60487 4.46251 2.14333L3.58334 3.1475C3.17243 3.60988 2.66296 3.97411 2.09251 4.21333L1.75918 4.35583C1.33428 4.52956 0.971261 4.82677 0.717073 5.20901C0.462885 5.59126 0.329215 6.04097 0.333345 6.5V7.91667C0.333786 8.28975 0.482244 8.64741 0.74613 8.91114C1.01002 9.17487 1.36776 9.32311 1.74084 9.32333H2.23584C2.35721 9.95634 2.69539 10.5272 3.19221 10.9379C3.68902 11.3485 4.3134 11.5731 4.95793 11.5731C5.60246 11.5731 6.22684 11.3485 6.72365 10.9379C7.22046 10.5272 7.55864 9.95634 7.68001 9.32333H12.32C12.4409 9.9566 12.7789 10.5279 13.2757 10.9388C13.7724 11.3497 14.397 11.5745 15.0417 11.5745C15.6864 11.5745 16.3109 11.3497 16.8077 10.9388C17.3045 10.5279 17.6424 9.9566 17.7633 9.32333H18.2592C18.6323 9.32311 18.99 9.17487 19.2539 8.91114C19.5178 8.64741 19.6662 8.28975 19.6667 7.91667V7.3025C19.6638 6.61086 19.4403 5.93817 19.0287 5.38229C18.6172 4.82641 18.039 4.41632 17.3783 4.21167ZM9.52084 1.42333H9.59668C10.6315 1.42285 11.6271 1.81992 12.3775 2.5325L13.7 3.79083C13.7592 3.84667 13.8317 3.88417 13.8942 3.935H9.52084V1.42333ZM4.33334 3.80917L5.21334 2.80417C5.59473 2.37218 6.06322 2.0258 6.58804 1.78781C7.11285 1.54982 7.68209 1.4256 8.25834 1.42333H8.52084V3.93417H4.21084C4.25001 3.89167 4.29668 3.85333 4.33334 3.80917ZM4.95584 10.5767C4.60478 10.5767 4.26161 10.4726 3.96971 10.2775C3.67781 10.0825 3.4503 9.80527 3.31596 9.48093C3.18161 9.15659 3.14646 8.7997 3.21495 8.45538C3.28344 8.11107 3.45249 7.79479 3.70073 7.54655C3.94897 7.29832 4.26524 7.12926 4.60956 7.06077C4.95388 6.99229 5.31077 7.02744 5.63511 7.16178C5.95945 7.29613 6.23666 7.52363 6.4317 7.81553C6.62674 8.10743 6.73084 8.45061 6.73084 8.80167C6.73019 9.27179 6.54331 9.72251 6.21111 10.0552C5.87892 10.3878 5.42847 10.5753 4.95834 10.5767H4.95584ZM15.0392 10.5767C14.6882 10.5765 14.3451 10.4723 14.0533 10.2771C13.7615 10.082 13.5341 9.80471 13.3999 9.48035C13.2657 9.156 13.2306 8.79913 13.2992 8.45487C13.3678 8.11061 13.5369 7.79441 13.7852 7.54626C14.0335 7.2981 14.3497 7.12913 14.694 7.06071C15.0383 6.99229 15.3952 7.02749 15.7195 7.16186C16.0438 7.29623 16.3209 7.52374 16.5159 7.81562C16.7109 8.1075 16.815 8.45064 16.815 8.80167C16.8144 9.27194 16.6274 9.72278 16.295 10.0555C15.9626 10.3882 15.5119 10.5756 15.0417 10.5767H15.0392ZM18.6667 7.91667C18.6672 7.97034 18.6571 8.02358 18.6368 8.07327C18.6165 8.12296 18.5865 8.1681 18.5486 8.20606C18.5106 8.24401 18.4655 8.274 18.4158 8.29428C18.3661 8.31457 18.3128 8.32472 18.2592 8.32417H17.7683C17.6578 7.68111 17.3235 7.09783 16.8246 6.67735C16.3257 6.25687 15.6942 6.02626 15.0417 6.02626C14.3892 6.02626 13.7577 6.25687 13.2588 6.67735C12.7598 7.09783 12.4256 7.68111 12.315 8.32417H7.68501C7.57446 7.68111 7.24019 7.09783 6.74126 6.67735C6.24232 6.25687 5.61083 6.02626 4.95834 6.02626C4.30586 6.02626 3.67437 6.25687 3.17543 6.67735C2.6765 7.09783 2.34223 7.68111 2.23168 8.32417H1.74084C1.68718 8.32472 1.63394 8.31457 1.58424 8.29428C1.53455 8.274 1.48941 8.24401 1.45146 8.20606C1.41351 8.1681 1.38351 8.12296 1.36323 8.07327C1.34295 8.02358 1.33279 7.97034 1.33334 7.91667V6.5C1.33366 6.23902 1.41133 5.98399 1.55654 5.76714C1.70175 5.55029 1.90798 5.38135 2.14918 5.28167L2.48251 5.13833C2.62334 5.08 2.76084 5.00917 2.89918 4.9375H16.3158L17.0833 5.16667C17.5397 5.30822 17.9391 5.59134 18.2237 5.97504C18.5084 6.35873 18.6635 6.82308 18.6667 7.30083V7.91667Z" fill="#47642E"/>
</svg>
