<svg width="100" height="100" viewBox="0 0 100 100" fill="none" xmlns="http://www.w3.org/2000/svg">
<path opacity="0.1" d="M50 100C77.6142 100 100 77.6142 100 50C100 22.3858 77.6142 0 50 0C22.3858 0 0 22.3858 0 50C0 77.6142 22.3858 100 50 100Z" fill="#219653"/>
<path d="M99.0631 20.5471L90.2349 11.797C89.0629 10.6251 87.1098 10.6251 85.8599 11.797L48.1252 50.7816L31.797 34.6878C30.6251 33.5159 28.6719 33.5159 27.422 34.6878L19.6094 42.4223C18.4375 43.5942 18.4375 45.5473 19.6094 46.7193L45.7034 72.5786C46.4066 73.2818 47.3441 73.5161 48.2816 73.4379C49.219 73.5161 50.1565 73.2816 50.8597 72.5786L99.0631 24.9221C100.235 23.672 100.235 21.7189 99.0631 20.5471Z" fill="#219653"/>
<path d="M50.8597 72.5786L99.0631 24.922C100.235 23.7501 100.235 21.797 99.0631 20.6251L97.6569 19.297L48.2034 67.891L20.8595 41.2503L19.6876 42.4222C18.5156 43.5942 18.5156 45.5473 19.6876 46.7192L45.7815 72.5788C46.4847 73.282 47.4222 73.5162 48.3597 73.4381C49.219 73.516 50.1565 73.2818 50.8597 72.5786Z" fill="#107E3F"/>
</svg>
