<svg width="18" height="18" viewBox="0 0 18 18" fill="none" xmlns="http://www.w3.org/2000/svg">
<path d="M8.99994 1.41666C7.41769 1.41666 5.87097 1.88585 4.55538 2.7649C3.23978 3.64395 2.2144 4.89338 1.6089 6.35519C1.0034 7.817 0.844974 9.42553 1.15366 10.9774C1.46234 12.5292 2.22426 13.9547 3.34308 15.0735C4.4619 16.1923 5.88737 16.9543 7.43922 17.2629C8.99107 17.5716 10.5996 17.4132 12.0614 16.8077C13.5232 16.2022 14.7726 15.1768 15.6517 13.8612C16.5307 12.5456 16.9999 10.9989 16.9999 9.41666C16.9977 7.2956 16.1542 5.26205 14.6544 3.76224C13.1545 2.26243 11.121 1.41886 8.99994 1.41666ZM8.99994 16.4167C7.61547 16.4167 6.26209 16.0061 5.11095 15.2369C3.9598 14.4678 3.0626 13.3745 2.53278 12.0954C2.00297 10.8164 1.86434 9.40889 2.13444 8.05102C2.40454 6.69316 3.07122 5.44588 4.05019 4.46691C5.02916 3.48794 6.27644 2.82126 7.63431 2.55116C8.99217 2.28106 10.3996 2.41969 11.6787 2.9495C12.9578 3.47931 14.0511 4.37652 14.8202 5.52766C15.5894 6.67881 15.9999 8.03219 15.9999 9.41666C15.9977 11.2725 15.2595 13.0517 13.9473 14.364C12.635 15.6762 10.8558 16.4144 8.99994 16.4167ZM11.8966 10.1667C11.8966 10.2993 11.8439 10.4264 11.7502 10.5202C11.6564 10.614 11.5292 10.6667 11.3966 10.6667H8.68994C8.55733 10.6667 8.43015 10.614 8.33639 10.5202C8.24262 10.4264 8.18994 10.2993 8.18994 10.1667V6.58332C8.18994 6.51766 8.20287 6.45264 8.228 6.39198C8.25313 6.33132 8.28996 6.2762 8.33639 6.22977C8.38282 6.18334 8.43793 6.14651 8.4986 6.12138C8.55926 6.09626 8.62428 6.08332 8.68994 6.08332C8.7556 6.08332 8.82062 6.09626 8.88128 6.12138C8.94194 6.14651 8.99706 6.18334 9.04349 6.22977C9.08992 6.2762 9.12675 6.33132 9.15188 6.39198C9.17701 6.45264 9.18994 6.51766 9.18994 6.58332V9.66666H11.3966C11.4623 9.66666 11.5273 9.67959 11.5879 9.70472C11.6486 9.72984 11.7037 9.76667 11.7502 9.8131C11.7966 9.85953 11.8334 9.91465 11.8585 9.97531C11.8837 10.036 11.8966 10.101 11.8966 10.1667ZM1.01994 4.02582C0.925155 4.11414 0.799791 4.16222 0.670257 4.15994C0.540723 4.15765 0.417132 4.10518 0.325524 4.01357C0.233915 3.92196 0.181441 3.79837 0.179155 3.66884C0.17687 3.5393 0.224952 3.41394 0.313272 3.31916L2.90327 0.729989C2.99806 0.641669 3.12342 0.593587 3.25295 0.595873C3.38249 0.598158 3.50608 0.650633 3.59769 0.742241C3.68929 0.83385 3.74177 0.95744 3.74406 1.08697C3.74634 1.21651 3.69826 1.34187 3.60994 1.43666L1.01994 4.02582ZM17.6866 4.02582C17.5929 4.11946 17.4658 4.17205 17.3333 4.17205C17.2008 4.17205 17.0737 4.11946 16.9799 4.02582L14.3908 1.43666C14.3025 1.34187 14.2544 1.21651 14.2567 1.08697C14.2589 0.95744 14.3114 0.83385 14.403 0.742241C14.4946 0.650633 14.6182 0.598158 14.7478 0.595873C14.8773 0.593587 15.0027 0.641669 15.0974 0.729989L17.6866 3.31916C17.7802 3.41291 17.8328 3.53999 17.8328 3.67249C17.8328 3.80499 17.7802 3.93207 17.6866 4.02582Z" fill="#47642E"/>
</svg>
