<svg width="24" height="24" viewBox="0 0 24 24" fill="none" xmlns="http://www.w3.org/2000/svg">
<path d="M12 1.39999C6.15503 1.39999 1.40002 6.15499 1.40002 12C1.40002 17.845 6.15503 22.6 12 22.6C17.845 22.6 22.6 17.845 22.6 12C22.6 6.15499 17.845 1.39999 12 1.39999ZM12 21.4C6.81702 21.4 2.60002 17.183 2.60002 12C2.60002 6.81699 6.81702 2.59999 12 2.59999C17.183 2.59999 21.4 6.81699 21.4 12C21.4 17.183 17.183 21.4 12 21.4ZM12 6.59999C9.02203 6.59999 6.60002 9.02299 6.60002 12C6.60002 12.331 6.33102 12.6 6.00002 12.6C5.66902 12.6 5.40002 12.331 5.40002 12C5.40002 8.35999 8.36102 5.39999 12 5.39999C12.98 5.39999 13.925 5.60999 14.807 6.02499C15.107 6.16599 15.236 6.52299 15.095 6.82399C14.954 7.12399 14.597 7.25399 14.297 7.11099C13.575 6.77199 12.802 6.59999 12 6.59999ZM17.647 8.27699C17.891 8.50099 17.908 8.88099 17.684 9.12499L13.436 13.765C13.856 14.5 13.777 15.451 13.175 16.109C12.429 16.924 11.164 16.979 10.349 16.233C9.53403 15.487 9.47902 14.222 10.225 13.407C10.832 12.744 11.783 12.584 12.556 12.95L16.8 8.31399C17.024 8.07099 17.403 8.05399 17.647 8.27699Z" fill="#F7972E"/>
</svg>
