<svg width="18" height="18" viewBox="0 0 18 18" fill="none" xmlns="http://www.w3.org/2000/svg">
<path d="M14.5747 1.21551H13.5499V0.534715C13.5499 0.392916 13.4936 0.256925 13.3933 0.156658C13.293 0.0563906 13.157 6.10352e-05 13.0152 6.10352e-05C12.8734 6.10352e-05 12.7375 0.0563906 12.6372 0.156658C12.5369 0.256925 12.4806 0.392916 12.4806 0.534715V1.21551H4.5998V0.534715C4.5998 0.392916 4.54347 0.256925 4.44321 0.156658C4.34294 0.0563906 4.20695 6.10352e-05 4.06515 6.10352e-05C3.92335 6.10352e-05 3.78736 0.0563906 3.68709 0.156658C3.58682 0.256925 3.53049 0.392916 3.53049 0.534715V1.21551H2.50485C1.84066 1.21645 1.20395 1.48078 0.734381 1.95052C0.264809 2.42026 0.000707174 3.05706 0 3.72125V15.4952C0.000942903 16.1592 0.265149 16.7958 0.734696 17.2654C1.20424 17.7349 1.84081 17.9991 2.50485 18.0001H14.5747C15.2391 17.9996 15.8761 17.7354 16.346 17.2656C16.8158 16.7958 17.0799 16.1587 17.0804 15.4943V3.72125C17.0799 3.05683 16.8158 2.41976 16.346 1.94994C15.8761 1.48013 15.2391 1.21598 14.5747 1.21551ZM16.0111 15.4943C16.0106 15.8751 15.8591 16.2402 15.5898 16.5095C15.3206 16.7788 14.9555 16.9303 14.5747 16.9308H2.50485C2.12427 16.9303 1.7594 16.7789 1.49029 16.5098C1.22117 16.2407 1.06978 15.8758 1.06931 15.4952V6.38739H16.012L16.0111 15.4943ZM16.0111 5.31808H1.06931V3.72125C1.06954 3.34051 1.22083 2.97542 1.48997 2.70611C1.75911 2.4368 2.12411 2.28529 2.50485 2.28481H3.53049V2.89966C3.53049 3.04146 3.58682 3.17746 3.68709 3.27772C3.78736 3.37799 3.92335 3.43432 4.06515 3.43432C4.20695 3.43432 4.34294 3.37799 4.44321 3.27772C4.54347 3.17746 4.5998 3.04146 4.5998 2.89966V2.28481H12.4815V2.89966C12.4815 3.04146 12.5378 3.17746 12.6381 3.27772C12.7383 3.37799 12.8743 3.43432 13.0161 3.43432C13.1579 3.43432 13.2939 3.37799 13.3942 3.27772C13.4945 3.17746 13.5508 3.04146 13.5508 2.89966V2.28481H14.5755C14.9562 2.28528 15.3212 2.43665 15.5904 2.70574C15.8597 2.97483 16.0113 3.33969 16.012 3.72036L16.0111 5.31808ZM3.02881 9.64254C3.02881 9.42224 3.09414 9.20688 3.21653 9.02371C3.33892 8.84053 3.51289 8.69777 3.71642 8.61346C3.91995 8.52916 4.14391 8.5071 4.35998 8.55008C4.57604 8.59306 4.77452 8.69914 4.93029 8.85492C5.08607 9.01069 5.19215 9.20917 5.23513 9.42523C5.27811 9.6413 5.25605 9.86526 5.17175 10.0688C5.08744 10.2723 4.94467 10.4463 4.7615 10.5687C4.57833 10.6911 4.36297 10.7564 4.14267 10.7564C3.84726 10.7564 3.56394 10.639 3.35505 10.4302C3.14616 10.2213 3.02881 9.93795 3.02881 9.64254ZM7.42634 9.64254C7.42634 9.42224 7.49166 9.20688 7.61406 9.02371C7.73645 8.84053 7.91041 8.69777 8.11394 8.61346C8.31747 8.52916 8.54143 8.5071 8.7575 8.55008C8.97357 8.59306 9.17204 8.69914 9.32782 8.85492C9.48359 9.01069 9.58968 9.20917 9.63266 9.42523C9.67564 9.6413 9.65358 9.86526 9.56927 10.0688C9.48497 10.2723 9.3422 10.4463 9.15903 10.5687C8.97585 10.6911 8.7605 10.7564 8.5402 10.7564C8.24478 10.7564 7.96147 10.639 7.75258 10.4302C7.54369 10.2213 7.42634 9.93795 7.42634 9.64254ZM11.8239 9.64254C11.8239 9.42224 11.8892 9.20688 12.0116 9.02371C12.134 8.84053 12.3079 8.69777 12.5115 8.61346C12.715 8.52916 12.939 8.5071 13.155 8.55008C13.3711 8.59306 13.5696 8.69914 13.7253 8.85492C13.8811 9.01069 13.9872 9.20917 14.0302 9.42523C14.0732 9.6413 14.0511 9.86526 13.9668 10.0688C13.8825 10.2723 13.7397 10.4463 13.5566 10.5687C13.3734 10.6911 13.158 10.7564 12.9377 10.7564C12.6423 10.7564 12.359 10.639 12.1501 10.4302C11.9412 10.2213 11.8239 9.93795 11.8239 9.64254ZM3.02881 13.2773C3.02881 13.057 3.09414 12.8416 3.21653 12.6585C3.33892 12.4753 3.51289 12.3325 3.71642 12.2482C3.91995 12.1639 4.14391 12.1419 4.35998 12.1848C4.57604 12.2278 4.77452 12.3339 4.93029 12.4897C5.08607 12.6454 5.19215 12.8439 5.23513 13.06C5.27811 13.2761 5.25605 13.5 5.17175 13.7035C5.08744 13.9071 4.94467 14.081 4.7615 14.2034C4.57833 14.3258 4.36297 14.3911 4.14267 14.3911C3.84726 14.3911 3.56394 14.2738 3.35505 14.0649C3.14616 13.856 3.02881 13.5727 3.02881 13.2773ZM7.42634 13.2773C7.42598 13.0569 7.49101 12.8414 7.61319 12.658C7.73537 12.4746 7.9092 12.3315 8.1127 12.2469C8.31621 12.1624 8.54022 12.1401 8.75641 12.1828C8.97259 12.2256 9.17123 12.3316 9.32718 12.4873C9.48314 12.643 9.5894 12.8414 9.63252 13.0575C9.67565 13.2737 9.65369 13.4977 9.56944 13.7013C9.48519 13.905 9.34242 14.0791 9.15921 14.2015C8.976 14.324 8.76057 14.3894 8.5402 14.3894C8.24509 14.3894 7.96205 14.2723 7.75321 14.0638C7.54437 13.8553 7.42681 13.5724 7.42634 13.2773ZM11.8239 13.2773C11.8239 13.057 11.8892 12.8416 12.0116 12.6585C12.134 12.4753 12.3079 12.3325 12.5115 12.2482C12.715 12.1639 12.939 12.1419 13.155 12.1848C13.3711 12.2278 13.5696 12.3339 13.7253 12.4897C13.8811 12.6454 13.9872 12.8439 14.0302 13.06C14.0732 13.2761 14.0511 13.5 13.9668 13.7035C13.8825 13.9071 13.7397 14.081 13.5566 14.2034C13.3734 14.3258 13.158 14.3911 12.9377 14.3911C12.6423 14.3911 12.359 14.2738 12.1501 14.0649C11.9412 13.856 11.8239 13.5727 11.8239 13.2773Z" fill="#F7972E"/>
</svg>
