<svg width="20" height="17" viewBox="0 0 20 17" fill="none" xmlns="http://www.w3.org/2000/svg">
<path d="M18.6225 6.83999C17.7892 6.00665 16.4283 6.00499 15.5917 6.83999L11.8533 10.5783C11.6433 10.1033 11.1683 9.77082 10.6158 9.77082H2.125C1.36667 9.77082 0.75 10.3875 0.75 11.1458V12.855C0.75 13.6133 1.36667 14.23 2.125 14.23H3.57583L4.82583 15.3625C5.96417 16.3933 7.4375 16.9617 8.97333 16.9617C10.6225 16.9617 12.1742 16.3192 13.3417 15.1525L18.6233 9.87165C19.4583 9.03499 19.4583 7.67582 18.6225 6.83999ZM17.9158 9.16332L12.635 14.4442C11.6558 15.4217 10.3558 15.9608 8.97333 15.9608C7.68583 15.9608 6.45167 15.485 5.4975 14.6208L4.10417 13.3583C4.0125 13.275 3.8925 13.2292 3.76833 13.2292H2.125C1.91833 13.2292 1.75 13.0608 1.75 12.8542V11.145C1.75 10.9375 1.91833 10.77 2.125 10.77H10.6158C10.81 10.77 10.9675 10.9275 10.9675 11.1217C10.9675 11.2817 10.9392 11.435 10.8875 11.5775C10.8733 11.605 10.8633 11.6325 10.8542 11.6608C10.6458 12.1367 10.1708 12.4692 9.61917 12.4692H6.86417C6.5875 12.4692 6.36417 12.6933 6.36417 12.9692C6.36417 13.245 6.58833 13.4692 6.86417 13.4692H9.61917C10.5717 13.4692 11.3925 12.9 11.7608 12.0833L16.2975 7.54582C16.7433 7.09999 17.47 7.09999 17.9142 7.54582C18.3608 7.99249 18.3608 8.71832 17.9158 9.16332ZM10 6.90332C11.7233 6.90332 13.125 5.50165 13.125 3.77832C13.125 2.05499 11.7233 0.65332 10 0.65332C8.27667 0.65332 6.875 2.05499 6.875 3.77832C6.875 5.50165 8.27667 6.90332 10 6.90332ZM10 1.65415C11.1717 1.65415 12.1258 2.60749 12.1258 3.77915C12.1258 4.95082 11.1717 5.90332 10 5.90332C8.82833 5.90332 7.875 4.94999 7.875 3.77832C7.875 2.60665 8.82833 1.65415 10 1.65415Z" fill="white"/>
</svg>
