<svg width="20" height="20" viewBox="0 0 20 20" fill="none" xmlns="http://www.w3.org/2000/svg">
<path d="M16.2458 3.75418C12.8017 0.308341 7.19833 0.308341 3.75416 3.75418C0.30916 7.19834 0.30916 12.8017 3.75416 16.2458C5.47583 17.9683 7.73749 18.83 9.99999 18.83C12.2625 18.83 14.5242 17.9692 16.2458 16.2458C19.6908 12.8017 19.6908 7.19834 16.2458 3.75418ZM4.46083 4.46084C5.98833 2.93418 7.99416 2.17001 9.99999 2.17001C11.85 2.17001 13.7 2.82001 15.175 4.11834L4.11916 15.175C1.41166 12.1008 1.52499 7.39668 4.46083 4.46084ZM15.5392 15.5392C12.6025 18.4742 7.89833 18.5875 4.82499 15.8808L15.8808 4.82501C18.5883 7.89918 18.475 12.6033 15.5392 15.5392Z" fill="#47642E"/>
<path d="M3 14.0208L14.0208 3" stroke="#47642E"/>
<path d="M6 17.0208L17 6.02075" stroke="#47642E"/>
<path d="M8.02075 18L18 8.02075" stroke="#47642E"/>
<path d="M11 18.0208L18.0208 11" stroke="#47642E" stroke-linecap="square"/>
<path d="M2 12.0208L12.0208 2" stroke="#47642E"/>
<path d="M1.64645 8.6672L1.29289 9.02075L2 9.72786L2.35355 9.37431L1.64645 8.6672ZM9.65248 2.07538C9.84774 1.88012 9.84774 1.56353 9.65248 1.36827C9.45722 1.17301 9.14063 1.17301 8.94537 1.36827L9.65248 2.07538ZM2.35355 9.37431L9.65248 2.07538L8.94537 1.36827L1.64645 8.6672L2.35355 9.37431Z" fill="#47642E"/>
</svg>
