<svg width="18" height="18" viewBox="0 0 18 18" fill="none" xmlns="http://www.w3.org/2000/svg">
<path d="M12.4392 6.60246C12.6342 6.79663 12.6342 7.11413 12.4392 7.30913L8.35091 11.3975C8.25341 11.495 8.12508 11.5441 7.99758 11.5441C7.87008 11.5441 7.74175 11.495 7.64425 11.3975L5.56091 9.31413C5.36591 9.11996 5.36591 8.80246 5.56091 8.60746C5.75591 8.41246 6.07175 8.41246 6.26758 8.60746L7.99758 10.3366L11.7326 6.60246C11.9284 6.40746 12.2442 6.40746 12.4392 6.60246ZM17.8334 8.99996C17.8334 13.8708 13.8709 17.8333 9.00008 17.8333C4.12925 17.8333 0.166748 13.8708 0.166748 8.99996C0.166748 4.12913 4.12925 0.166626 9.00008 0.166626C13.8709 0.166626 17.8334 4.12913 17.8334 8.99996ZM16.8334 8.99996C16.8334 4.67996 13.3192 1.16663 9.00008 1.16663C4.68091 1.16663 1.16675 4.67996 1.16675 8.99996C1.16675 13.32 4.68091 16.8333 9.00008 16.8333C13.3192 16.8333 16.8334 13.32 16.8334 8.99996Z" fill="#219653"/>
</svg>
