<svg width="24" height="24" viewBox="0 0 24 24" fill="none" xmlns="http://www.w3.org/2000/svg">
<path d="M11.9999 1.39999C6.1549 1.39999 1.3999 6.15499 1.3999 12C1.3999 13.626 1.7769 15.236 2.4919 16.67L1.4509 21.883C1.4119 22.079 1.4729 22.282 1.6159 22.425C1.7289 22.538 1.8829 22.6 2.0399 22.6C2.0789 22.6 2.1189 22.596 2.1579 22.588L7.3849 21.539C8.8229 22.243 10.3739 22.6 11.9999 22.6C17.8449 22.6 22.5999 17.845 22.5999 12C22.5999 6.15499 17.8449 1.39999 11.9999 1.39999ZM11.9999 21.4C10.4949 21.4 9.0629 21.055 7.7439 20.377C7.6589 20.333 7.5639 20.311 7.4699 20.311C7.4309 20.311 7.3909 20.315 7.3519 20.323L2.8049 21.235L3.7089 16.708C3.7159 16.672 3.7199 16.625 3.7199 16.587C3.7199 16.586 3.7199 16.586 3.7199 16.585C3.7199 16.584 3.7199 16.584 3.7199 16.583C3.7199 16.581 3.7199 16.581 3.7199 16.579V16.578C3.7199 16.578 3.7199 16.577 3.7199 16.576C3.7199 16.512 3.7089 16.449 3.6899 16.39C3.6789 16.36 3.6669 16.33 3.6519 16.301C2.9639 14.992 2.5999 13.505 2.5999 12C2.5999 6.81599 6.8169 2.59999 11.9999 2.59999C17.1829 2.59999 21.3999 6.81699 21.3999 12C21.3999 17.183 17.1839 21.4 11.9999 21.4ZM11.9999 8.83599C10.8809 8.06899 9.2409 8.20699 8.2619 9.18899C7.7059 9.74299 7.3999 10.482 7.3999 11.269C7.3999 12.056 7.7059 12.795 8.2609 13.35L11.2919 16.381C11.4799 16.57 11.7309 16.674 11.9989 16.674C12.2669 16.674 12.5179 16.57 12.7059 16.381L15.7369 13.35C16.2929 12.795 16.5979 12.056 16.5979 11.269C16.5979 10.483 16.2919 9.74399 15.7369 9.18899C14.7579 8.20699 13.1199 8.06899 11.9999 8.83599ZM14.8909 12.502L11.9999 15.392L9.1089 12.502C8.7809 12.173 8.5989 11.735 8.5989 11.269C8.5989 10.803 8.7809 10.366 9.1089 10.037C9.4499 9.69699 9.8959 9.52699 10.3419 9.52699C10.7879 9.52699 11.2349 9.69699 11.5749 10.037C11.8089 10.271 12.1879 10.271 12.4229 10.037C13.1049 9.35699 14.2079 9.35699 14.8899 10.037C15.2179 10.366 15.3999 10.804 15.3999 11.269C15.3999 11.735 15.2189 12.173 14.8909 12.502Z" fill="#F7972E"/>
</svg>
