<svg width="18" height="18" viewBox="0 0 18 18" fill="none" xmlns="http://www.w3.org/2000/svg">
<path d="M16.5976 10.3396L15.7941 9.87516C15.7425 9.84615 15.7005 9.80278 15.6732 9.75034C15.6459 9.69789 15.6344 9.63863 15.6402 9.57977C15.6675 9.32742 15.6808 9.07374 15.6801 8.81992C15.6801 8.59481 15.6706 8.38585 15.6516 8.19114L16.5967 7.64594C16.9301 7.45319 17.1735 7.1361 17.2736 6.76417C17.3737 6.39224 17.3222 5.99581 17.1305 5.66177L15.7855 3.32332C15.6902 3.15746 15.563 3.01206 15.4113 2.89549C15.2596 2.77891 15.0864 2.69346 14.9016 2.64404C14.7168 2.59461 14.524 2.58219 14.3344 2.60748C14.1448 2.63277 13.962 2.69529 13.7966 2.79142L13.1175 3.1856C13.0644 3.21147 13.005 3.22147 12.9463 3.21439C12.8877 3.20731 12.8324 3.18346 12.7869 3.14571C12.4443 2.89418 12.0785 2.6757 11.6946 2.49318C11.6342 2.46863 11.5819 2.4277 11.5434 2.37501C11.505 2.32233 11.4821 2.25996 11.4771 2.19494V1.45313C11.4766 1.06787 11.3234 0.698525 11.0509 0.426102C10.7785 0.153679 10.4092 0.000411075 10.0239 -9.15527e-05H7.31314C6.92788 0.000411075 6.55853 0.153679 6.28611 0.426102C6.01369 0.698525 5.86042 1.06787 5.85992 1.45313V2.19399C5.85528 2.25921 5.83243 2.32183 5.79398 2.37471C5.75553 2.4276 5.70302 2.46865 5.64241 2.49318C5.2563 2.67547 4.88834 2.89395 4.54347 3.14571C4.49717 3.18356 4.44102 3.20742 4.38164 3.21448C4.32225 3.22155 4.26208 3.21153 4.20818 3.1856L3.53286 2.79142C3.36746 2.69529 3.1847 2.63277 2.99507 2.60748C2.80544 2.58219 2.61268 2.59461 2.42787 2.64404C2.24305 2.69346 2.06982 2.77891 1.91813 2.89549C1.76644 3.01206 1.63928 3.15746 1.54394 3.32332L0.193304 5.66557C0.00152517 5.99976 -0.0499789 6.39633 0.0500747 6.76842C0.150128 7.1405 0.393581 7.45776 0.727101 7.65069L1.67217 8.19494C1.65222 8.3906 1.64368 8.59861 1.64368 8.82372C1.64316 9.07754 1.65647 9.3312 1.68357 9.58357C1.68954 9.64234 1.67826 9.70158 1.6511 9.75404C1.62394 9.8065 1.58209 9.84991 1.53065 9.87896L0.727101 10.3425C0.394255 10.5351 0.15117 10.8516 0.0509694 11.2228C-0.0492313 11.5941 0.00159961 11.9899 0.192354 12.3238L1.543 14.6698C1.73593 15.0034 2.05319 15.2468 2.42527 15.3469C2.79736 15.4469 3.19393 15.3954 3.52811 15.2036L4.45989 14.666C4.50458 14.6379 4.556 14.6223 4.60879 14.6208C4.66158 14.6193 4.7138 14.632 4.76003 14.6575C5.06178 14.8593 5.37944 15.0362 5.70985 15.1865C5.75813 15.2126 5.79808 15.2517 5.82513 15.2994C5.85218 15.3471 5.86523 15.4015 5.86277 15.4563V16.5467C5.86327 16.932 6.01654 17.3013 6.28896 17.5737C6.56138 17.8461 6.93072 17.9994 7.31599 17.9999H10.023C10.4082 17.9994 10.7776 17.8461 11.05 17.5737C11.3224 17.3013 11.4757 16.932 11.4762 16.5467V15.4582C11.4738 15.4034 11.4869 15.3491 11.514 15.3014C11.541 15.2537 11.5809 15.2146 11.6291 15.1884C11.9546 15.0384 12.2674 14.8624 12.5647 14.6622C12.6108 14.6359 12.6632 14.6227 12.7163 14.624C12.7694 14.6253 12.8211 14.6412 12.8658 14.6698L13.7985 15.2065C14.1326 15.398 14.5289 15.4493 14.9008 15.3493C15.2727 15.2492 15.5897 15.006 15.7827 14.6727L17.1314 12.3238C17.3231 11.9898 17.3746 11.5933 17.2746 11.2214C17.1745 10.8495 16.9311 10.5324 16.5976 10.3396ZM16.1426 11.7549L14.792 14.1C14.7716 14.1358 14.7443 14.1673 14.7117 14.1925C14.6791 14.2178 14.6418 14.2364 14.602 14.2471C14.5621 14.2579 14.5206 14.2607 14.4797 14.2553C14.4388 14.2499 14.3993 14.2365 14.3636 14.2158L13.4319 13.6792C13.2024 13.5442 12.9398 13.4759 12.6737 13.4822C12.4075 13.4884 12.1484 13.5688 11.9255 13.7143C11.6791 13.88 11.4199 14.0258 11.1504 14.1503C10.9039 14.2672 10.696 14.4522 10.5513 14.6835C10.4065 14.9147 10.331 15.1825 10.3336 15.4553V16.5467C10.3336 16.6298 10.3005 16.7095 10.2418 16.7683C10.183 16.8271 10.1032 16.8601 10.0201 16.8601H7.31314C7.23001 16.8601 7.15029 16.8271 7.0915 16.7683C7.03272 16.7095 6.9997 16.6298 6.9997 16.5467V15.4582C7.00217 15.1851 6.92638 14.9169 6.78129 14.6855C6.6362 14.454 6.42788 14.269 6.18096 14.1522C5.90801 14.0277 5.64563 13.8813 5.39641 13.7143C5.16832 13.5634 4.90053 13.4838 4.62705 13.4854C4.36934 13.4857 4.1162 13.5535 3.89284 13.682L2.96297 14.2149C2.89082 14.256 2.80537 14.267 2.72517 14.2455C2.64497 14.2239 2.57649 14.1717 2.5346 14.1L1.18111 11.7539C1.16055 11.7182 1.14723 11.6788 1.14193 11.6379C1.13662 11.597 1.13943 11.5555 1.1502 11.5157C1.16096 11.4759 1.17947 11.4386 1.20466 11.406C1.22984 11.3734 1.26122 11.346 1.29699 11.3255L2.10054 10.8611C2.34316 10.7213 2.53993 10.514 2.66691 10.2644C2.79388 10.0149 2.84559 9.73376 2.81575 9.45535C2.79314 9.24525 2.78204 9.03407 2.78251 8.82277C2.77917 8.54618 2.80143 8.26987 2.84899 7.99738C2.87089 7.88125 2.85614 7.76119 2.80679 7.65381C2.75744 7.54643 2.67593 7.45705 2.57355 7.39804L1.29604 6.66288C1.22415 6.62117 1.17171 6.55269 1.15017 6.47242C1.12863 6.39214 1.13976 6.30661 1.18111 6.23451L2.52986 3.89226C2.55016 3.85644 2.57743 3.82505 2.61006 3.79993C2.64268 3.77481 2.68 3.75647 2.71982 3.74599C2.76016 3.73365 2.80264 3.72989 2.84451 3.73496C2.88639 3.74003 2.92675 3.75382 2.96297 3.77543L3.64019 4.16866C3.88504 4.30642 4.16471 4.3699 4.44504 4.35134C4.72537 4.33279 4.99423 4.23301 5.21879 4.06418C5.50555 3.85494 5.81149 3.67335 6.13252 3.52183C6.38972 3.40677 6.60851 3.22032 6.7629 2.98461C6.91729 2.74891 7.00079 2.47385 7.0035 2.19209V1.45123C7.0035 1.3681 7.03652 1.28838 7.0953 1.22959C7.15408 1.17081 7.23381 1.13779 7.31694 1.13779H10.0239C10.107 1.13779 10.1868 1.17081 10.2456 1.22959C10.3043 1.28838 10.3374 1.3681 10.3374 1.45123V2.19304C10.3399 2.47459 10.4231 2.7495 10.5772 2.98519C10.7312 3.22087 10.9496 3.40745 11.2064 3.52278C11.5252 3.67455 11.8289 3.85614 12.1135 4.06513C12.3376 4.23451 12.6062 4.3348 12.8865 4.35369C13.1667 4.37259 13.4464 4.30927 13.6912 4.17151L14.3608 3.77543C14.3962 3.75411 14.4357 3.74032 14.4767 3.73493C14.5177 3.72954 14.5594 3.73266 14.5992 3.74409C14.639 3.75457 14.6763 3.77291 14.709 3.79803C14.7416 3.82315 14.7688 3.85454 14.7892 3.89036L16.1379 6.23261C16.1792 6.30456 16.1903 6.38996 16.1688 6.47007C16.1472 6.55019 16.0948 6.6185 16.023 6.66003L14.7455 7.39614C14.6431 7.45515 14.5616 7.54453 14.5122 7.65191C14.4629 7.75928 14.4481 7.87935 14.47 7.99548C14.5176 8.26797 14.5398 8.54428 14.5365 8.82087C14.5372 9.0325 14.5261 9.244 14.5033 9.4544C14.4736 9.7329 14.5255 10.014 14.6527 10.2636C14.7798 10.5131 14.9767 10.7204 15.2194 10.8601L16.0239 11.3246C16.0601 11.3448 16.0918 11.372 16.1174 11.4046C16.1429 11.4372 16.1618 11.4746 16.1728 11.5145C16.1839 11.5544 16.1869 11.5961 16.1817 11.6372C16.1765 11.6783 16.1632 11.718 16.1426 11.7539V11.7549ZM8.66188 5.13177C7.89693 5.13177 7.14916 5.35861 6.51312 5.78359C5.87709 6.20858 5.38136 6.81262 5.08863 7.51934C4.7959 8.22607 4.7193 9.00372 4.86854 9.75398C5.01777 10.5042 5.38613 11.1934 5.92703 11.7343C6.46793 12.2752 7.15708 12.6435 7.90734 12.7928C8.65759 12.942 9.43525 12.8654 10.142 12.5727C10.8487 12.28 11.4527 11.7842 11.8777 11.1482C12.3027 10.5122 12.5295 9.76438 12.5295 8.99943C12.5285 7.97398 12.1207 6.99081 11.3956 6.2657C10.6705 5.54059 9.68734 5.13278 8.66188 5.13177ZM8.66188 11.7264C8.12232 11.7264 7.59487 11.5663 7.14626 11.2666C6.69764 10.9668 6.348 10.5407 6.14156 10.0422C5.93512 9.54367 5.88116 8.99513 5.98649 8.46595C6.09182 7.93677 6.35172 7.45071 6.73332 7.06925C7.11491 6.68778 7.60106 6.42805 8.13028 6.32291C8.6595 6.21776 9.20801 6.27191 9.70645 6.47853C10.2049 6.68514 10.6309 7.03493 10.9305 7.48365C11.2301 7.93237 11.3899 8.45987 11.3898 8.99943C11.389 9.72268 11.1014 10.4161 10.5899 10.9275C10.0785 11.4389 9.38513 11.7266 8.66188 11.7273V11.7264Z" fill="white"/>
</svg>
