<svg width="16" height="18" viewBox="0 0 16 18" fill="none" xmlns="http://www.w3.org/2000/svg">
<path d="M13.2359 2.33333C11.8472 0.944705 9.96386 0.164581 8.00004 0.164581C6.03623 0.164581 4.15284 0.944705 2.76421 2.33333C1.37558 3.72196 0.595459 5.60535 0.595459 7.56917C0.595459 9.53299 1.37558 11.4164 2.76421 12.805L7.64588 17.6867C7.69231 17.7332 7.74746 17.77 7.80816 17.7952C7.86886 17.8204 7.93392 17.8333 7.99963 17.8333C8.06534 17.8333 8.1304 17.8204 8.1911 17.7952C8.2518 17.77 8.30694 17.7332 8.35338 17.6867L13.235 12.805C14.6208 11.4149 15.3991 9.53218 15.3992 7.56934C15.3994 5.6065 14.6214 3.72364 13.2359 2.33333ZM12.5284 12.0967L8.00004 16.6258L3.47171 12.0975C2.57605 11.2019 1.96608 10.0608 1.71895 8.81847C1.47182 7.57617 1.59863 6.28849 2.08334 5.11827C2.56805 3.94805 3.38889 2.94783 4.44205 2.24412C5.49522 1.54041 6.73341 1.16481 8.00004 1.16481C9.26668 1.16481 10.5049 1.54041 11.558 2.24412C12.6112 2.94783 13.432 3.94805 13.9167 5.11827C14.4015 6.28849 14.5283 7.57617 14.2811 8.81847C14.034 10.0608 13.424 11.2019 12.5284 12.0975V12.0967ZM8.00004 4.33333C7.4067 4.33333 6.82668 4.50928 6.33333 4.83893C5.83999 5.16857 5.45547 5.63711 5.22841 6.18528C5.00134 6.73346 4.94193 7.33666 5.05769 7.91861C5.17345 8.50055 5.45917 9.0351 5.87872 9.45466C6.29828 9.87421 6.83283 10.1599 7.41477 10.2757C7.99672 10.3914 8.59992 10.332 9.1481 10.105C9.69627 9.87791 10.1648 9.49339 10.4945 9.00004C10.8241 8.5067 11 7.92668 11 7.33333C11 6.53769 10.684 5.77462 10.1214 5.21201C9.55876 4.64941 8.79569 4.33333 8.00004 4.33333ZM8.00004 9.33333C7.60448 9.33333 7.2178 9.21604 6.8889 8.99627C6.56001 8.77651 6.30366 8.46415 6.15229 8.0987C6.00091 7.73325 5.9613 7.33112 6.03847 6.94315C6.11564 6.55519 6.30613 6.19883 6.58583 5.91912C6.86554 5.63942 7.2219 5.44893 7.60986 5.37176C7.99783 5.29459 8.39996 5.3342 8.76541 5.48558C9.13086 5.63695 9.44322 5.8933 9.66298 6.22219C9.88275 6.55109 10 6.93777 10 7.33333C10 7.86377 9.78933 8.37248 9.41426 8.74755C9.03919 9.12262 8.53048 9.33333 8.00004 9.33333Z" fill="#47642E"/>
</svg>
