<svg width="18" height="18" viewBox="0 0 18 18" fill="none" xmlns="http://www.w3.org/2000/svg">
<path d="M9.00008 0.166664C4.12925 0.166664 0.166748 4.12916 0.166748 9C0.166748 13.8708 4.12925 17.8333 9.00008 17.8333C13.8709 17.8333 17.8334 13.8708 17.8334 9C17.8334 4.12916 13.8709 0.166664 9.00008 0.166664ZM9.00008 16.8333C4.68091 16.8333 1.16675 13.3192 1.16675 9C1.16675 4.68083 4.68091 1.16666 9.00008 1.16666C13.3201 1.16666 16.8334 4.68083 16.8334 9C16.8334 13.3192 13.3201 16.8333 9.00008 16.8333ZM12.8334 9C12.8334 9.27583 12.6092 9.5 12.3334 9.5H5.66675C5.39008 9.5 5.16675 9.27583 5.16675 9C5.16675 8.72416 5.39091 8.5 5.66675 8.5H12.3334C12.6092 8.5 12.8334 8.72416 12.8334 9Z" fill="#F2C94C"/>
</svg>
