<svg width="24" height="24" viewBox="0 0 24 24" fill="none" xmlns="http://www.w3.org/2000/svg">
<path d="M19.6189 2.795H4.38088C2.73688 2.795 1.40088 4.132 1.40088 5.776V18.936C1.40088 18.949 1.40788 18.96 1.40788 18.973C1.39888 19.141 1.45388 19.311 1.58388 19.437L4.91188 22.637C5.14388 22.86 5.51188 22.861 5.74388 22.637L8.65888 19.836L11.5749 22.637C11.8069 22.861 12.1749 22.861 12.4069 22.637L15.3239 19.836L18.2469 22.638C18.3629 22.749 18.5129 22.805 18.6619 22.805C18.8109 22.805 18.9609 22.749 19.0769 22.638L22.4149 19.438C22.5459 19.312 22.6009 19.142 22.5919 18.974C22.5929 18.961 22.5999 18.95 22.5999 18.937V5.776C22.5999 4.133 21.2629 2.795 19.6189 2.795ZM21.3999 18.748L18.6619 21.373L15.7389 18.571C15.5069 18.348 15.1399 18.348 14.9079 18.571L11.9909 21.372L9.07488 18.571C8.84288 18.347 8.47488 18.347 8.24288 18.571L5.32788 21.372L2.59988 18.748V5.776C2.59988 4.794 3.39888 3.995 4.38088 3.995H19.6189C20.6009 3.995 21.3999 4.794 21.3999 5.776V18.748ZM10.9059 9.093H6.14488C5.81388 9.093 5.54488 9.362 5.54488 9.693V14.455C5.54488 14.787 5.81388 15.055 6.14488 15.055H10.9069C11.2379 15.055 11.5069 14.786 11.5069 14.455V9.693C11.5059 9.362 11.2369 9.093 10.9059 9.093ZM10.3069 13.855H6.74388V10.293H10.3059V13.855H10.3069ZM18.4549 10.251C18.4549 10.583 18.1859 10.851 17.8549 10.851H14.2839C13.9529 10.851 13.6839 10.582 13.6839 10.251C13.6839 9.92 13.9529 9.651 14.2839 9.651H17.8549C18.1869 9.651 18.4549 9.92 18.4549 10.251ZM18.4549 13.897C18.4549 14.229 18.1859 14.497 17.8549 14.497H14.2839C13.9529 14.497 13.6839 14.228 13.6839 13.897C13.6839 13.566 13.9529 13.297 14.2839 13.297H17.8549C18.1869 13.297 18.4549 13.566 18.4549 13.897Z" fill="#F7972E"/>
</svg>
