<svg width="18" height="18" viewBox="0 0 18 18" fill="" xmlns="http://www.w3.org/2000/svg">
<path d="M15.2458 2.75417C11.8017 -0.691666 6.19833 -0.691666 2.75416 2.75417C-0.69084 6.19833 -0.69084 11.8017 2.75416 15.2458C4.47583 16.9683 6.73749 17.83 8.99999 17.83C11.2625 17.83 13.5242 16.9692 15.2458 15.2458C18.6908 11.8017 18.6908 6.19833 15.2458 2.75417ZM3.46083 3.46083C4.98833 1.93417 6.99416 1.17 8.99999 1.17C10.85 1.17 12.7 1.82 14.175 3.11833L3.11916 14.175C0.41166 11.1008 0.524993 6.39667 3.46083 3.46083ZM14.5392 14.5392C11.6025 17.4742 6.89833 17.5875 3.82499 14.8808L14.8808 3.825C17.5883 6.89917 17.475 11.6033 14.5392 14.5392Z" fill="#EB5757"/>
</svg>
