<svg width="20" height="16" viewBox="0 0 20 16" fill="none" xmlns="http://www.w3.org/2000/svg">
<path d="M19.4575 8.71834C18.7467 9.82334 17.8567 10.7833 16.8117 11.5733C16.7217 11.6417 16.6159 11.675 16.51 11.675C16.3584 11.675 16.21 11.6067 16.1109 11.4767C15.9442 11.2567 15.9884 10.9425 16.2075 10.7767C17.1592 10.0575 17.9692 9.18334 18.615 8.18001C18.685 8.07001 18.685 7.93084 18.6142 7.81918C16.7159 4.88084 13.4942 3.12501 10 3.12501C9.40753 3.12501 8.80503 3.17834 8.21169 3.28418C7.93753 3.33168 7.68086 3.15168 7.63169 2.87918C7.58419 2.60751 7.76419 2.34751 8.03669 2.29918C8.68836 2.18418 9.34919 2.12501 10 2.12501C13.8359 2.12501 17.37 4.05168 19.4559 7.27918C19.7359 7.71834 19.7359 8.28168 19.4575 8.71834ZM17.855 15.1467C18.05 15.3417 18.05 15.6583 17.855 15.8542C17.7584 15.9517 17.6292 16.0008 17.5017 16.0008C17.3742 16.0008 17.2459 15.9517 17.1484 15.8542L14.3125 13.0192C12.9409 13.5875 11.4917 13.875 10 13.875C6.16419 13.875 2.63003 11.9483 0.544193 8.72084C0.264193 8.28168 0.264193 7.71751 0.542527 7.28084C1.58919 5.65584 3.02669 4.33834 4.72669 3.43418L2.14503 0.853344C1.95003 0.658344 1.95003 0.341677 2.14503 0.146677C2.33836 -0.0483227 2.65586 -0.0483227 2.85169 0.146677L8.58253 5.87668C8.58419 5.87834 8.58503 5.87918 8.58669 5.88001L10.3534 7.64668L14.7634 12.055C14.7725 12.0633 14.7817 12.0725 14.7909 12.0825L17.855 15.1467ZM7.99919 8.00001C7.99919 9.10251 8.89669 10 10 10C10.3634 10 10.7109 9.90334 11.0159 9.72251L8.27753 6.98418C8.09586 7.28918 7.99919 7.63751 7.99919 8.00001ZM13.5409 12.2467L11.7375 10.4442C11.2334 10.805 10.6317 11 10 11C8.34586 11 6.99919 9.65418 6.99919 8.00001C6.99919 7.36918 7.19419 6.76751 7.55503 6.26251L5.47003 4.17751C3.80086 5.00251 2.39336 6.25584 1.38419 7.82084C1.31503 7.93001 1.31503 8.06918 1.38586 8.18168C3.28419 11.1192 6.50586 12.875 10 12.875C11.2192 12.875 12.4075 12.6642 13.5409 12.2467Z" fill="#47642E"/>
</svg>
