<svg width="18" height="18" viewBox="0 0 18 18" fill="none" xmlns="http://www.w3.org/2000/svg">
<path d="M12.4392 6.6025C12.6342 6.79667 12.6342 7.11417 12.4392 7.30917L8.35091 11.3975C8.25341 11.495 8.12508 11.5442 7.99758 11.5442C7.87008 11.5442 7.74175 11.495 7.64425 11.3975L5.56091 9.31417C5.36591 9.12 5.36591 8.8025 5.56091 8.6075C5.75591 8.41251 6.07175 8.41251 6.26758 8.6075L7.99758 10.3367L11.7326 6.6025C11.9284 6.4075 12.2442 6.4075 12.4392 6.6025ZM17.8334 9C17.8334 13.8708 13.8709 17.8333 9.00008 17.8333C4.12925 17.8333 0.166748 13.8708 0.166748 9C0.166748 4.12917 4.12925 0.166672 9.00008 0.166672C13.8709 0.166672 17.8334 4.12917 17.8334 9ZM16.8334 9C16.8334 4.68001 13.3192 1.16667 9.00008 1.16667C4.68091 1.16667 1.16675 4.68001 1.16675 9C1.16675 13.32 4.68091 16.8333 9.00008 16.8333C13.3192 16.8333 16.8334 13.32 16.8334 9Z" fill="#219653"/>
</svg>
