<svg width="18" height="18" viewBox="0 0 18 18" fill="none" xmlns="http://www.w3.org/2000/svg">
<path d="M14.27 2.98636L13.4838 1.04045C13.3251 0.630378 13.0169 0.308606 12.6153 0.134561C12.2146 -0.0394841 11.7714 -0.0445781 11.3639 0.119279L4.52687 2.91844H4.40377C1.97563 2.91844 0 4.87029 0 7.26957V13.649C0 16.0482 1.97563 18.0001 4.40377 18.0001H13.5959C16.024 18.0001 17.9997 16.0482 17.9997 13.649V7.26957C17.9997 5.09867 16.3772 3.30898 14.27 2.98636ZM11.7485 1.06252C11.8971 1.00224 12.0609 1.00394 12.2095 1.06846C12.3581 1.13299 12.4735 1.25354 12.5355 1.41401L13.1434 2.91844H7.21566L11.7485 1.06252ZM16.9809 12.3806H12.5355C11.8699 12.3806 11.3291 11.8389 11.3291 11.1741V9.74356C11.3291 9.07794 11.8707 8.53712 12.5355 8.53712H16.9809V12.3806ZM16.9809 7.51832H12.5355C11.3087 7.51832 10.3094 8.51675 10.3094 9.7444V11.175C10.3094 12.4018 11.3078 13.4011 12.5355 13.4011H16.9809V13.6498C16.9809 15.487 15.4629 16.9813 13.5968 16.9813H4.40377C2.53766 16.9813 1.01965 15.487 1.01965 13.6498V7.26957C1.01965 5.43233 2.53766 3.93809 4.40377 3.93809H13.5959C15.462 3.93809 16.98 5.43233 16.98 7.26957V7.51832H16.9809Z" fill="white"/>
</svg>
