<svg width="50" height="54" viewBox="0 0 50 54" fill="none" xmlns="http://www.w3.org/2000/svg">
<g clip-path="url(#clip0)">
<path d="M8.31001 29.989C8.31001 29.989 7.22971 38.4973 12.0845 40.0883C10.2957 39.6209 8.70365 39.0977 7.36967 38.5959C6.2675 38.1671 5.34465 37.8069 4.64486 37.4981C4.26694 36.1346 4.04976 34.7332 3.99756 33.3212C3.99756 33.0853 3.99756 32.8451 3.99756 32.605V18.9592C3.99856 16.165 4.63002 13.4056 5.84668 10.8788C7.06334 8.35207 8.83505 6.12053 11.0348 4.34418C11.9873 5.53643 12.6957 6.89797 13.1211 8.35387C11.236 10.1121 9.70085 12.5694 8.98794 16.013C7.6146 22.7287 10.3656 26.6955 14.4332 28.7325C14.3588 29.736 14.267 30.7824 14.1576 31.8631L8.31001 29.989Z" fill="#4480BC"/>
<path d="M19.6816 51.2254C16.117 50.5438 12.8183 48.897 10.1592 46.4717C7.50003 44.0463 5.58677 40.9392 4.63611 37.5024C5.3359 37.8111 6.25875 38.1928 7.36092 38.6002C8.41935 41.8037 11.5203 48.2406 19.6072 49.7888C19.5649 50.2687 19.59 50.7521 19.6816 51.2254Z" fill="#8D6474"/>
<path d="M15.0236 6.89152C14.3483 7.32522 13.7118 7.81443 13.1211 8.35388C12.6904 6.89668 11.976 5.53505 11.0173 4.34419C11.8156 3.69698 12.6654 3.11333 13.5584 2.59879C14.1338 3.99974 14.6231 5.43321 15.0236 6.89152Z" fill="#405FAC"/>
<path d="M25.9841 30.315V39.518L25.4767 33.6728L19.0168 33.4498L15.4697 32.2919C15.6884 31.3227 15.8809 30.3664 16.0383 29.4273C19.2325 30.5033 22.6443 30.8078 25.9841 30.315Z" fill="#4480BC"/>
<path d="M25.9841 39.518C24.6195 40.8388 18.5488 39.0891 18.5488 39.0891C19.7035 38.5959 21.3261 34.1788 21.3261 34.1788L19.0168 33.4498L25.9841 33.7071V39.518Z" fill="#254254"/>
<path d="M21.3261 34.1788C21.3261 34.1788 19.7034 38.5959 18.5619 39.0977C16.0645 40.2384 14.1576 40.5214 12.7099 40.2513C12.5 40.2055 12.2944 40.1541 12.0932 40.0969C7.22094 38.4973 8.30999 29.989 8.30999 29.989L14.1707 31.8717L15.4828 32.3005L19.0168 33.4498L21.3261 34.1788Z" fill="#2E475B"/>
<path d="M19.0607 35.0451C19.0607 35.0451 17.9979 37.9355 17.2456 38.2786C15.6055 39.0248 14.3502 39.2135 13.4011 39.0248C13.2655 38.9905 13.13 38.9605 12.9987 38.9219C9.79283 37.8841 10.497 32.2919 10.497 32.2919L14.3502 33.5313L15.225 33.81L17.5561 34.5562L19.0607 35.0451Z" fill="#FAC99F"/>
<path d="M14.4332 28.7325C10.3613 26.6869 7.6102 22.7287 9.00104 16.0044C9.71395 12.5737 11.2491 10.1036 13.1342 8.3453C14.3675 12.0076 15.2423 18.2387 14.4332 28.7325Z" fill="#62ADE0"/>
<path d="M16.0384 29.4273C15.8809 30.3664 15.6885 31.3227 15.4698 32.2919L14.1577 31.8631C14.2671 30.7824 14.3589 29.7189 14.4333 28.7325C14.9527 28.9974 15.4888 29.2295 16.0384 29.4273Z" fill="#405FAC"/>
<path d="M16.0383 29.4273C15.4887 29.2295 14.9526 28.9974 14.4332 28.7325C15.238 18.2301 14.3632 12.0076 13.1211 8.3453C13.7063 7.80663 14.3369 7.31743 15.0062 6.88294C15.3211 8.01938 15.636 9.33164 15.9115 10.7983C17.0593 16.9534 17.1022 23.2577 16.0383 29.4273Z" fill="#405FAC"/>
<path d="M3.99755 33.3212C3.75684 33.4029 3.50435 33.4463 3.24965 33.4498C1.45644 33.4498 0 31.5843 0 29.2943C0 27.0043 1.45644 25.156 3.24965 25.156C3.4975 25.1564 3.74382 25.194 3.98006 25.2675V32.5921C3.98006 32.8451 3.98443 33.0853 3.99755 33.3212Z" fill="#FAC99F"/>
<path d="M12.2944 34.2174L17.2192 35.6841C17.2192 35.6841 14.1226 40.1612 12.2944 34.2174Z" fill="#7B626A"/>
<path d="M41.6988 29.989C41.6988 29.989 42.7791 38.4973 37.9199 40.0883C39.7044 39.6209 41.2964 39.0977 42.626 38.6088C43.7281 38.18 44.6466 37.8197 45.3508 37.511C45.7276 36.1429 45.9447 34.7373 45.9981 33.3212C45.9981 33.0853 45.9981 32.8451 45.9981 32.605V18.9592C45.9979 16.1653 45.3673 13.406 44.1514 10.8792C42.9355 8.35243 41.1644 6.12075 38.9652 4.34418C38.0065 5.53564 37.2907 6.89699 36.8571 8.35387C38.7465 10.1121 40.2817 12.5694 40.9946 16.013C42.3811 22.7287 39.6344 26.6955 35.5581 28.7325C35.6325 29.736 35.7243 30.7824 35.8336 31.8631L41.6988 29.989Z" fill="#4480BC"/>
<path d="M30.3096 51.2254C33.8736 50.5424 37.1715 48.8952 39.8304 46.47C42.4893 44.0448 44.403 40.9385 45.3551 37.5024C44.6509 37.8111 43.7324 38.1928 42.6303 38.6002C41.5762 41.8037 38.4752 48.2406 30.3839 49.7888C30.4217 50.2688 30.3967 50.7516 30.3096 51.2254Z" fill="#8D6474"/>
<path d="M34.9895 6.89152C35.6596 7.32493 36.2903 7.81419 36.8746 8.35388C37.3082 6.897 38.0239 5.53564 38.9827 4.34419C38.1844 3.69698 37.3346 3.11333 36.4416 2.59879C35.8701 3.99983 35.3852 5.43333 34.9895 6.89152Z" fill="#405FAC"/>
<path d="M36.424 2.59879C33.4709 0.894521 30.1061 -0.0028537 26.6794 1.02648e-06H23.316C19.8849 -0.00536414 16.5152 0.892106 13.5583 2.59879C14.1276 3.99872 14.611 5.43075 15.006 6.88723C18.505 4.61436 22.6119 4.12548 24.9824 4.05257C27.353 4.12548 31.4467 4.61436 34.9544 6.88723C35.356 5.43012 35.8468 3.99805 36.424 2.59879Z" fill="#4480BC"/>
<path d="M25.9841 4.10832V4.04829C25.7042 4.04829 25.3718 4.04829 25.0001 4.04829C24.6283 4.04829 24.2959 4.04829 24.016 4.04829V4.10832C21.5973 4.27986 18.0896 4.90597 15.0237 6.89152C15.3386 8.02796 15.6535 9.34022 15.929 10.8069C17.8491 8.57688 21.4311 8.11801 24.016 8.09228V8.14803C24.2959 8.12659 24.6283 8.10515 25.0001 8.09657C25.3718 8.08799 25.6999 8.12659 25.9841 8.14803V8.08371C28.5515 8.10944 32.151 8.58545 34.0667 10.7983C34.3466 9.33164 34.6615 8.01938 34.9721 6.88294C31.928 4.90597 28.4028 4.28844 25.9841 4.10832Z" fill="#62ADE0"/>
<path d="M24.0159 30.315V39.518L24.5232 33.6728L30.9832 33.4498L34.5521 32.2919C34.329 31.3227 34.141 30.3664 33.9791 29.4273C30.7798 30.5074 27.3613 30.812 24.0159 30.315Z" fill="#4480BC"/>
<path d="M37.9198 40.0883C37.7182 40.1538 37.5121 40.2054 37.3032 40.2427C33.6143 41.1876 29.8086 41.6206 25.9972 41.5292V41.4049L25.0131 41.4821C24.6865 41.4592 24.3585 41.4334 24.029 41.4049V41.5292C20.2175 41.6209 16.4118 41.1879 12.723 40.2427C12.5138 40.2065 12.3077 40.1549 12.1063 40.0883C10.2956 39.6209 8.7036 39.0977 7.36963 38.5959C8.42806 41.7994 11.529 48.2363 19.616 49.7845C19.628 49.572 19.6722 49.3624 19.7472 49.1626C20.4295 48.5751 22.332 48.4679 24.0159 48.5022V48.6009L25 48.5365L25.984 48.6009V48.5022C27.6635 48.4679 29.5661 48.5751 30.2484 49.1626C30.3236 49.3625 30.3693 49.5719 30.384 49.7845C38.4884 48.2492 41.5719 41.8123 42.6259 38.5959C41.2963 39.0977 39.7043 39.6209 37.9198 40.0883Z" fill="#FAC99F"/>
<path d="M24.0159 39.518C25.3761 40.8388 31.4511 39.0891 31.4511 39.0891C30.2921 38.5959 28.6695 34.1788 28.6695 34.1788L30.9832 33.4498L24.0159 33.7071V39.518Z" fill="#254254"/>
<path d="M28.6694 34.1788C28.6694 34.1788 30.2921 38.5959 31.438 39.0977C33.9354 40.2384 35.8423 40.5214 37.29 40.2513C37.4955 40.2041 37.7273 40.1526 37.9067 40.0969C42.7658 38.5059 41.6855 29.9976 41.6855 29.9976L35.8335 31.8717L34.5214 32.3005L30.9831 33.4498L28.6694 34.1788Z" fill="#2E475B"/>
<path d="M30.9351 35.0451C30.9351 35.0451 32.0022 37.9355 32.7545 38.2786C34.3946 39.0248 35.6455 39.2135 36.599 39.0248C36.7346 38.9905 36.8702 38.9605 37.0057 38.9219C40.2029 37.8841 39.4944 32.2919 39.4944 32.2919L35.6411 33.5313L34.7664 33.81L32.4527 34.5562L30.9351 35.0451Z" fill="#FAC99F"/>
<path d="M30.3839 49.7973C30.3692 49.5848 30.3236 49.3754 30.2483 49.1755C29.4305 48.4679 26.8412 48.4593 24.9999 48.5494C23.1542 48.4593 20.5694 48.4679 19.7515 49.1755C19.6765 49.3752 19.6323 49.5848 19.6203 49.7973C19.5788 50.2745 19.6038 50.7549 19.6946 51.2254C19.8516 52.0454 20.107 52.8443 20.4556 53.6055C20.4556 53.6055 22.2663 53.8499 24.0158 53.9443C24.3132 53.9443 24.6456 53.9657 24.9999 53.9443C25.3542 53.9228 25.6866 53.9443 25.984 53.9443C27.7335 53.8499 29.5398 53.6055 29.5398 53.6055C29.8943 52.8399 30.1528 52.0349 30.3096 51.2082C30.3945 50.7428 30.4195 50.2688 30.3839 49.7973Z" fill="#8D6474"/>
<path d="M34.0666 10.8069C31.8798 8.28955 27.5411 8.01938 25 8.10514C22.4589 8.01938 18.1071 8.28955 15.929 10.8069C17.0699 16.9602 17.1069 23.2615 16.0383 29.4273C18.9125 30.4099 21.9726 30.7584 25 30.4479C28.0247 30.7636 31.0832 30.4209 33.9573 29.4444C32.8887 23.2729 32.9258 16.9659 34.0666 10.8069Z" fill="#62ADE0"/>
<path d="M35.558 28.7325C39.6343 26.6869 42.381 22.7287 40.9945 16.0044C40.2816 12.5737 38.7464 10.1036 36.857 8.3453C35.628 12.0076 34.7577 18.2387 35.558 28.7325Z" fill="#62ADE0"/>
<path d="M33.9573 29.4273C34.1147 30.3664 34.3072 31.3056 34.5521 32.2919L35.8642 31.8631C35.7549 30.7824 35.663 29.7189 35.5887 28.7325C35.0611 28.9992 34.5161 29.2313 33.9573 29.4273Z" fill="#405FAC"/>
<path d="M33.9572 29.4273C34.5056 29.2301 35.0404 28.998 35.558 28.7325C34.7576 18.2301 35.6279 12.0076 36.8701 8.3453C36.2868 7.80878 35.6576 7.3224 34.9894 6.89152C34.6789 8.02795 34.3639 9.34022 34.084 10.8069C32.9394 16.9594 32.8965 23.2603 33.9572 29.4273Z" fill="#405FAC"/>
<path d="M46.0024 33.3212C46.2441 33.3971 46.4966 33.4347 46.7503 33.4327C48.5436 33.4327 50 31.5843 50 29.2943C50 27.0043 48.5436 25.156 46.7503 25.156C46.501 25.1561 46.2532 25.1937 46.0156 25.2675V32.5921C46.0156 32.8451 46.0112 33.0853 46.0024 33.3212Z" fill="#FAC99F"/>
<path d="M37.7055 34.2174L32.7764 35.6841C32.7764 35.6841 35.8642 40.1612 37.7055 34.2174Z" fill="#7B626A"/>
<path d="M30.371 24.101L26.3647 24.6071L25.8836 22.8188H24.0554L23.653 24.6071L19.533 24.2125L22.7432 13.6673L27.2306 13.4443L30.371 24.101ZM25.5905 20.3958L24.9782 17.6383L24.379 20.3958H25.5905Z" fill="#FFFEFE"/>
<path d="M37.2901 40.2513C35.8424 40.5214 33.9355 40.2513 31.4381 39.0977C31.4381 39.0977 28.254 40.024 25.9841 40.0326C25.6631 39.9511 25.3299 39.9264 25 39.9597C24.6702 39.9264 24.3369 39.9511 24.0159 40.0326C21.746 40.0326 18.562 39.0977 18.562 39.0977C16.0646 40.2384 14.1577 40.5214 12.71 40.2513C16.7163 41.2871 20.8624 41.7067 25 41.4949C29.1377 41.7065 33.2837 41.2869 37.2901 40.2513Z" fill="#4480BC"/>
</g>
<defs>
<clipPath id="clip0">
<rect width="50" height="54" fill="white"/>
</clipPath>
</defs>
</svg>
