<svg width="14" height="18" viewBox="0 0 14 18" fill="none" xmlns="http://www.w3.org/2000/svg">
<path d="M6.99998 0.166672C3.28831 0.166672 0.268311 3.18584 0.268311 6.8975C0.268311 9.42667 1.67081 11.6342 3.73914 12.7842V17.3333C3.73914 17.5158 3.83914 17.6842 3.99914 17.7717C4.15914 17.8583 4.35414 17.8533 4.50831 17.7542L6.99998 16.1625L9.49164 17.755C9.57415 17.8067 9.66748 17.8333 9.76081 17.8333C9.84331 17.8333 9.92581 17.8133 10.0008 17.7725C10.1608 17.685 10.2608 17.5158 10.2608 17.3342V12.7858C12.3291 11.6358 13.7316 9.42834 13.7316 6.89917C13.7316 3.18584 10.7116 0.166672 6.99998 0.166672ZM9.26081 16.42L7.26914 15.1475C7.10498 15.0433 6.89498 15.0433 6.73081 15.1475L4.73914 16.42V13.2375C5.44581 13.49 6.20748 13.6283 6.99998 13.6283C7.79248 13.6283 8.55414 13.49 9.26081 13.2375V16.42ZM9.62164 11.9933C9.56331 12.01 9.50998 12.0375 9.46248 12.0725C8.71581 12.4292 7.88081 12.6292 6.99914 12.6292C6.11748 12.6292 5.28248 12.4292 4.53581 12.0725C4.48831 12.0375 4.43498 12.01 4.37664 11.9933C2.53164 11.04 1.26748 9.11334 1.26748 6.8975C1.26914 3.73834 3.83998 1.16667 6.99998 1.16667C10.16 1.16667 12.7308 3.73834 12.7308 6.89834C12.7308 9.11417 11.4666 11.04 9.62164 11.9933ZM9.48581 5.86084L8.07831 5.65584L7.44914 4.38084C7.28081 4.03917 6.72081 4.03917 6.55248 4.38084L5.92331 5.65584L4.51414 5.86084C4.32581 5.88917 4.16998 6.02084 4.11081 6.20167C4.05248 6.38334 4.10081 6.58167 4.23748 6.71417L5.25664 7.70667L5.01581 9.10917C4.98331 9.2975 5.06081 9.48667 5.21498 9.59834C5.36914 9.71 5.57331 9.72417 5.74164 9.63667L6.99998 8.97417L8.25914 9.63667C8.33248 9.675 8.41248 9.69334 8.49164 9.69334C8.59581 9.69334 8.69831 9.66167 8.78581 9.59834C8.93998 9.48667 9.01664 9.2975 8.98498 9.10917L8.74415 7.70667L9.76331 6.71417C9.89998 6.58167 9.94831 6.38334 9.88998 6.20167C9.82998 6.02084 9.67414 5.88917 9.48581 5.86084ZM7.85748 7.17417C7.73998 7.28917 7.68581 7.45417 7.71415 7.61667L7.82748 8.28L7.23248 7.96667C7.15998 7.92834 7.07914 7.91001 6.99998 7.91001C6.92081 7.91001 6.83998 7.92834 6.76748 7.96667L6.17248 8.28L6.28581 7.61667C6.31331 7.45417 6.25998 7.28834 6.14248 7.17417L5.66081 6.70584L6.32581 6.60917C6.48831 6.58584 6.62914 6.48334 6.70248 6.33584L6.99998 5.73167L7.29748 6.335C7.36998 6.4825 7.51081 6.585 7.67414 6.60834L8.33915 6.705L7.85748 7.17417Z" fill="white"/>
</svg>
