<svg width="24" height="24" viewBox="0 0 24 24" fill="none" xmlns="http://www.w3.org/2000/svg">
<path d="M19.791 8.549V4.506C19.791 3.898 19.52 3.329 19.047 2.947C18.573 2.564 17.961 2.417 17.301 2.564L2.98502 7.393C2.06602 7.59 1.40002 8.415 1.40002 9.354V14.442C1.40002 15.38 2.06702 16.205 2.91902 16.384L5.12402 17.127L6.54702 19.846C7.09402 20.896 8.16802 21.498 9.27802 21.498C9.75702 21.498 10.242 21.386 10.695 21.15L13.192 19.845L17.301 21.23C17.322 21.237 17.344 21.244 17.366 21.248C17.507 21.278 17.649 21.293 17.79 21.293C18.243 21.293 18.686 21.139 19.047 20.847C19.52 20.465 19.791 19.896 19.791 19.288V15.244C21.385 14.959 22.6 13.57 22.6 11.895C22.6 10.223 21.385 8.834 19.791 8.549ZM10.14 20.087C9.22303 20.566 8.08802 20.208 7.61102 19.291L6.76902 17.682L11.616 19.316L10.14 20.087ZM18.592 19.29C18.592 19.534 18.483 19.762 18.292 19.916C18.109 20.063 17.879 20.124 17.646 20.083L5.78302 16.087C5.75202 16.074 5.72102 16.063 5.68802 16.055L3.23602 15.229C2.86702 15.149 2.60002 14.819 2.60002 14.442V9.354C2.60002 8.977 2.86802 8.646 3.30202 8.549L17.618 3.719C17.856 3.67 18.102 3.727 18.292 3.88C18.482 4.034 18.592 4.262 18.592 4.506V19.29ZM19.791 14.013V9.782C20.716 10.045 21.4 10.889 21.4 11.897C21.4 12.906 20.716 13.75 19.791 14.013Z" fill="#F7972E"/>
</svg>
