<svg width="17" height="18" viewBox="0 0 17 18" fill="none" xmlns="http://www.w3.org/2000/svg">
<path d="M10.1667 12.75V13.5833C10.1667 14.6 9.7628 15.575 9.04391 16.2939C8.32502 17.0128 7.35 17.4167 6.33333 17.4167H1.33333C0.979711 17.4167 0.640573 17.2762 0.390524 17.0262C0.140476 16.7761 0 16.437 0 16.0833V1.91668C0 1.56305 0.140476 1.22392 0.390524 0.973868C0.640573 0.723819 0.979711 0.583344 1.33333 0.583344H6.33333C7.35 0.583344 8.32502 0.987211 9.04391 1.7061C9.7628 2.42499 10.1667 3.40001 10.1667 4.41668V5.25001C10.1667 5.38262 10.114 5.50979 10.0202 5.60356C9.92645 5.69733 9.79928 5.75001 9.66667 5.75001C9.53406 5.75001 9.40688 5.69733 9.31311 5.60356C9.21935 5.50979 9.16667 5.38262 9.16667 5.25001V4.41668C9.16667 3.66523 8.86816 2.94456 8.3368 2.41321C7.80545 1.88185 7.08478 1.58334 6.33333 1.58334H1.33333C1.24559 1.58546 1.16203 1.62126 1.09997 1.68332C1.03791 1.74538 1.00212 1.82894 1 1.91668V16.0833C1.00212 16.1711 1.03791 16.2546 1.09997 16.3167C1.16203 16.3788 1.24559 16.4146 1.33333 16.4167H6.33333C7.08478 16.4167 7.80545 16.1182 8.3368 15.5868C8.86816 15.0555 9.16667 14.3348 9.16667 13.5833V12.75C9.16667 12.6174 9.21935 12.4902 9.31311 12.3965C9.40688 12.3027 9.53406 12.25 9.66667 12.25C9.79928 12.25 9.92645 12.3027 10.0202 12.3965C10.114 12.4902 10.1667 12.6174 10.1667 12.75ZM15.9417 8.77501C15.9195 8.72286 15.8885 8.67493 15.85 8.63334L12.8917 5.66668C12.7977 5.57275 12.6703 5.51998 12.5375 5.51998C12.4047 5.51998 12.2773 5.57275 12.1833 5.66668C12.0894 5.76061 12.0366 5.888 12.0366 6.02084C12.0366 6.15368 12.0894 6.28108 12.1833 6.37501L14.3 8.49168H5.5C5.36739 8.49168 5.24022 8.54435 5.14645 8.63812C5.05268 8.73189 5 8.85907 5 8.99168C5 9.12428 5.05268 9.25146 5.14645 9.34523C5.24022 9.439 5.36739 9.49168 5.5 9.49168H14.2833L12.1667 11.6167C12.0727 11.7106 12.02 11.838 12.02 11.9708C12.02 12.1037 12.0727 12.2311 12.1667 12.325C12.2606 12.4189 12.388 12.4717 12.5208 12.4717C12.6537 12.4717 12.7811 12.4189 12.875 12.325L15.8167 9.38334C15.9084 9.315 15.9724 9.21584 15.9969 9.10408C16.0214 8.99231 16.0048 8.87547 15.95 8.77501H15.9417Z" fill="white"/>
</svg>
