<svg width="18" height="18" viewBox="0 0 18 18" fill="none" xmlns="http://www.w3.org/2000/svg">
<path d="M8.99996 0.166656C4.12913 0.166656 0.166626 4.12916 0.166626 8.99999C0.166626 10.355 0.480793 11.6967 1.07663 12.8917L0.209126 17.2358C0.176626 17.3992 0.227459 17.5683 0.346626 17.6875C0.440793 17.7817 0.569126 17.8333 0.699959 17.8333C0.732459 17.8333 0.765793 17.83 0.798293 17.8233L5.15413 16.9492C6.35246 17.5358 7.64496 17.8333 8.99996 17.8333C13.8708 17.8333 17.8333 13.8708 17.8333 8.99999C17.8333 4.12916 13.8708 0.166656 8.99996 0.166656ZM8.99996 16.8333C7.74579 16.8333 6.55246 16.5458 5.45329 15.9808C5.38246 15.9442 5.30329 15.9258 5.22496 15.9258C5.19246 15.9258 5.15913 15.9292 5.12663 15.9358L1.33746 16.6958L2.09079 12.9233C2.09663 12.8933 2.09996 12.8542 2.09996 12.8225C2.09996 12.8217 2.09996 12.8217 2.09996 12.8208C2.09996 12.82 2.09996 12.82 2.09996 12.8192C2.09996 12.8175 2.09996 12.8175 2.09996 12.8158V12.815C2.09996 12.815 2.09996 12.8142 2.09996 12.8133C2.09996 12.76 2.09079 12.7075 2.07496 12.6583C2.06579 12.6333 2.05579 12.6083 2.04329 12.5842C1.46996 11.4933 1.16663 10.2542 1.16663 8.99999C1.16663 4.67999 4.68079 1.16666 8.99996 1.16666C13.3191 1.16666 16.8333 4.68082 16.8333 8.99999C16.8333 13.3192 13.32 16.8333 8.99996 16.8333ZM8.99996 6.36332C8.06746 5.72416 6.70079 5.83916 5.88496 6.65749C5.42163 7.11916 5.16663 7.73499 5.16663 8.39082C5.16663 9.04666 5.42163 9.66249 5.88413 10.125L8.40996 12.6508C8.56663 12.8083 8.77579 12.895 8.99913 12.895C9.22246 12.895 9.43163 12.8083 9.58829 12.6508L12.1141 10.125C12.5775 9.66249 12.8316 9.04666 12.8316 8.39082C12.8316 7.73582 12.5766 7.11999 12.1141 6.65749C11.2983 5.83916 9.93329 5.72416 8.99996 6.36332ZM11.4091 9.41832L8.99996 11.8267L6.59079 9.41832C6.31746 9.14416 6.16579 8.77916 6.16579 8.39082C6.16579 8.00249 6.31746 7.63832 6.59079 7.36416C6.87496 7.08082 7.24663 6.93916 7.61829 6.93916C7.98996 6.93916 8.36246 7.08082 8.64579 7.36416C8.84079 7.55916 9.15663 7.55916 9.35246 7.36416C9.92079 6.79749 10.84 6.79749 11.4083 7.36416C11.6816 7.63832 11.8333 8.00332 11.8333 8.39082C11.8333 8.77916 11.6825 9.14416 11.4091 9.41832Z" fill="white"/>
</svg>
