<svg width="18" height="18" viewBox="0 0 18 18" fill="none" xmlns="http://www.w3.org/2000/svg">
<path d="M14.5745 1.21553H13.5498V0.534734C13.5498 0.392935 13.4934 0.256944 13.3932 0.156677C13.2929 0.0564096 13.1569 8.01086e-05 13.0151 8.01086e-05C12.8733 8.01086e-05 12.7373 0.0564096 12.6371 0.156677C12.5368 0.256944 12.4805 0.392935 12.4805 0.534734V1.21553H4.59968V0.534734C4.59968 0.392935 4.54335 0.256944 4.44308 0.156677C4.34282 0.0564096 4.20683 8.01086e-05 4.06503 8.01086e-05C3.92323 8.01086e-05 3.78724 0.0564096 3.68697 0.156677C3.5867 0.256944 3.53037 0.392935 3.53037 0.534734V1.21553H2.50473C1.84054 1.21647 1.20383 1.4808 0.734259 1.95054C0.264687 2.42028 0.000585103 3.05708 -0.00012207 3.72127V15.4952C0.000820833 16.1593 0.265027 16.7958 0.734574 17.2654C1.20412 17.7349 1.84069 17.9991 2.50473 18.0001H14.5745C15.2389 17.9996 15.876 17.7355 16.3458 17.2656C16.8157 16.7958 17.0798 16.1588 17.0803 15.4943V3.72127C17.0798 3.05685 16.8157 2.41978 16.3458 1.94996C15.876 1.48015 15.2389 1.216 14.5745 1.21553ZM16.011 15.4943C16.0105 15.8752 15.859 16.2402 15.5897 16.5095C15.3204 16.7788 14.9554 16.9303 14.5745 16.9308H2.50473C2.12414 16.9303 1.75928 16.7789 1.49017 16.5098C1.22105 16.2407 1.06966 15.8758 1.06918 15.4952V6.38741H16.0119L16.011 15.4943ZM16.011 5.3181H1.06918V3.72127C1.06942 3.34053 1.22071 2.97544 1.48985 2.70613C1.75899 2.43682 2.12399 2.2853 2.50473 2.28483H3.53037V2.89968C3.53037 3.04148 3.5867 3.17747 3.68697 3.27774C3.78724 3.37801 3.92323 3.43434 4.06503 3.43434C4.20683 3.43434 4.34282 3.37801 4.44308 3.27774C4.54335 3.17747 4.59968 3.04148 4.59968 2.89968V2.28483H12.4814V2.89968C12.4814 3.04148 12.5377 3.17747 12.638 3.27774C12.7382 3.37801 12.8742 3.43434 13.016 3.43434C13.1578 3.43434 13.2938 3.37801 13.3941 3.27774C13.4943 3.17747 13.5507 3.04148 13.5507 2.89968V2.28483H14.5754C14.9561 2.2853 15.321 2.43667 15.5903 2.70576C15.8596 2.97485 16.0112 3.33971 16.0119 3.72038L16.011 5.3181ZM3.02869 9.64256C3.02869 9.42225 3.09402 9.2069 3.21641 9.02373C3.3388 8.84055 3.51276 8.69779 3.71629 8.61348C3.91983 8.52918 4.14379 8.50712 4.35985 8.5501C4.57592 8.59307 4.77439 8.69916 4.93017 8.85494C5.08595 9.01071 5.19203 9.20918 5.23501 9.42525C5.27799 9.64132 5.25593 9.86528 5.17163 10.0688C5.08732 10.2723 4.94455 10.4463 4.76138 10.5687C4.57821 10.6911 4.36285 10.7564 4.14255 10.7564C3.84714 10.7564 3.56382 10.6391 3.35493 10.4302C3.14604 10.2213 3.02869 9.93797 3.02869 9.64256ZM7.42621 9.64256C7.42621 9.42225 7.49154 9.2069 7.61393 9.02373C7.73633 8.84055 7.91029 8.69779 8.11382 8.61348C8.31735 8.52918 8.54131 8.50712 8.75738 8.5501C8.97345 8.59307 9.17192 8.69916 9.32769 8.85494C9.48347 9.01071 9.58956 9.20918 9.63253 9.42525C9.67551 9.64132 9.65345 9.86528 9.56915 10.0688C9.48484 10.2723 9.34208 10.4463 9.1589 10.5687C8.97573 10.6911 8.76038 10.7564 8.54008 10.7564C8.24466 10.7564 7.96135 10.6391 7.75246 10.4302C7.54357 10.2213 7.42621 9.93797 7.42621 9.64256ZM11.8237 9.64256C11.8237 9.42225 11.8891 9.2069 12.0115 9.02373C12.1339 8.84055 12.3078 8.69779 12.5113 8.61348C12.7149 8.52918 12.9388 8.50712 13.1549 8.5501C13.371 8.59307 13.5694 8.69916 13.7252 8.85494C13.881 9.01071 13.9871 9.20918 14.0301 9.42525C14.073 9.64132 14.051 9.86528 13.9667 10.0688C13.8824 10.2723 13.7396 10.4463 13.5564 10.5687C13.3733 10.6911 13.1579 10.7564 12.9376 10.7564C12.6422 10.7564 12.3589 10.6391 12.15 10.4302C11.9411 10.2213 11.8237 9.93797 11.8237 9.64256ZM3.02869 13.2773C3.02869 13.057 3.09402 12.8417 3.21641 12.6585C3.3388 12.4753 3.51276 12.3325 3.71629 12.2482C3.91983 12.1639 4.14379 12.1419 4.35985 12.1848C4.57592 12.2278 4.77439 12.3339 4.93017 12.4897C5.08595 12.6455 5.19203 12.8439 5.23501 13.06C5.27799 13.2761 5.25593 13.5 5.17163 13.7036C5.08732 13.9071 4.94455 14.0811 4.76138 14.2034C4.57821 14.3258 4.36285 14.3912 4.14255 14.3912C3.84714 14.3912 3.56382 14.2738 3.35493 14.0649C3.14604 13.856 3.02869 13.5727 3.02869 13.2773ZM7.42621 13.2773C7.42586 13.0569 7.49089 12.8414 7.61307 12.658C7.73524 12.4746 7.90908 12.3315 8.11258 12.247C8.31608 12.1624 8.5401 12.1401 8.75629 12.1828C8.97247 12.2256 9.17111 12.3316 9.32706 12.4873C9.48302 12.643 9.58928 12.8414 9.6324 13.0576C9.67553 13.2737 9.65357 13.4977 9.56932 13.7014C9.48507 13.905 9.3423 14.0791 9.15909 14.2015C8.97588 14.324 8.76045 14.3894 8.54008 14.3894C8.24497 14.3894 7.96192 14.2723 7.75309 14.0638C7.54425 13.8553 7.42669 13.5724 7.42621 13.2773ZM11.8237 13.2773C11.8237 13.057 11.8891 12.8417 12.0115 12.6585C12.1339 12.4753 12.3078 12.3325 12.5113 12.2482C12.7149 12.1639 12.9388 12.1419 13.1549 12.1848C13.371 12.2278 13.5694 12.3339 13.7252 12.4897C13.881 12.6455 13.9871 12.8439 14.0301 13.06C14.073 13.2761 14.051 13.5 13.9667 13.7036C13.8824 13.9071 13.7396 14.0811 13.5564 14.2034C13.3733 14.3258 13.1579 14.3912 12.9376 14.3912C12.6422 14.3912 12.3589 14.2738 12.15 14.0649C11.9411 13.856 11.8237 13.5727 11.8237 13.2773Z" fill="white"/>
</svg>
