<svg width="18" height="18" viewBox="0 0 18 18" fill="none" xmlns="http://www.w3.org/2000/svg">
<path d="M9.00008 0.166656C4.12925 0.166656 0.166748 4.12916 0.166748 8.99999C0.166748 13.8708 4.12925 17.8333 9.00008 17.8333C13.8709 17.8333 17.8334 13.8708 17.8334 8.99999C17.8334 4.12916 13.8709 0.166656 9.00008 0.166656ZM9.00008 16.8333C4.68091 16.8333 1.16675 13.3192 1.16675 8.99999C1.16675 4.68082 4.68091 1.16666 9.00008 1.16666C13.3192 1.16666 16.8334 4.68082 16.8334 8.99999C16.8334 13.3192 13.3192 16.8333 9.00008 16.8333ZM11.7109 6.99666L9.70675 8.99999L11.7109 11.0033C11.9059 11.1975 11.9059 11.5142 11.7109 11.71C11.6134 11.8075 11.4851 11.8567 11.3576 11.8567C11.2301 11.8567 11.1017 11.8075 11.0042 11.71L9.00008 9.70666L6.99675 11.71C6.89925 11.8075 6.77091 11.8567 6.64341 11.8567C6.51508 11.8567 6.38758 11.8075 6.29008 11.71C6.09508 11.515 6.09508 11.1983 6.29008 11.0033L8.29342 8.99999L6.28925 6.99666C6.09425 6.80249 6.09425 6.48582 6.28925 6.28999C6.48425 6.09416 6.80091 6.09499 6.99675 6.28999L9.00008 8.29332L11.0034 6.28999C11.1992 6.09499 11.5159 6.09582 11.7109 6.28999C11.9059 6.48499 11.9059 6.80166 11.7109 6.99666Z" fill="#EB5757"/>
</svg>
