<svg width="20" height="20" viewBox="0 0 20 20" fill="none" xmlns="http://www.w3.org/2000/svg">
<path d="M2.3536 2.13604C2.54886 1.94078 2.86544 1.94078 3.06071 2.13604L17.9099 16.9853C18.1052 17.1805 18.1052 17.4971 17.9099 17.6924C17.7147 17.8877 17.3981 17.8877 17.2028 17.6924L2.3536 2.84315C2.15834 2.64788 2.15834 2.3313 2.3536 2.13604Z" fill="white"/>
<path d="M2.35355 17.6924C2.15829 17.4971 2.15829 17.1805 2.35355 16.9853L17.2028 2.13604C17.3981 1.94078 17.7146 1.94078 17.9099 2.13604C18.1052 2.3313 18.1052 2.64789 17.9099 2.84315L3.06066 17.6924C2.8654 17.8877 2.54882 17.8877 2.35355 17.6924Z" fill="white"/>
</svg>
