<svg width="119" height="40" viewBox="0 0 119 40" fill="none" xmlns="http://www.w3.org/2000/svg">
<path fill-rule="evenodd" clip-rule="evenodd" d="M24.4822 3.73023C24.6147 3.73023 24.7218 3.83836 24.7218 3.97112V12.8665H24.7756C24.8654 12.6145 25.0191 12.3606 25.2353 12.1067C25.4529 11.8528 25.7132 11.6254 26.0206 11.426C26.327 11.2271 26.6877 11.0644 27.1022 10.9365C27.5177 10.8105 27.9682 10.7473 28.4553 10.7473C29.4836 10.7473 30.3131 10.9051 30.9447 11.2223C31.5758 11.539 32.0672 11.9787 32.4188 12.5411C32.7704 13.104 33.0096 13.7644 33.1364 14.5261C33.2617 15.2879 33.3251 16.1129 33.3251 17.0007V24.0476C33.3251 24.1804 33.218 24.2885 33.0855 24.2885H29.5067C29.3746 24.2885 29.267 24.1804 29.267 24.0476V17.816C29.267 17.4356 29.254 17.0407 29.2267 16.6338C29.1993 16.2259 29.1186 15.8488 28.9831 15.5056C28.8477 15.1605 28.6407 14.88 28.3607 14.6623C28.0806 14.445 27.6796 14.3355 27.1565 14.3355C26.6335 14.3355 26.2098 14.4315 25.8851 14.6212C25.5609 14.8119 25.3121 15.0658 25.1416 15.3825C24.9697 15.6997 24.8573 16.0584 24.8025 16.4566C24.7492 16.8563 24.7218 17.2729 24.7218 17.7079V24.0476C24.7218 24.1804 24.6147 24.2885 24.4822 24.2885H20.9034C20.7708 24.2885 20.6637 24.1804 20.6637 24.0476V3.97112C20.6637 3.83836 20.7708 3.73023 20.9034 3.73023H24.4822Z" fill="white"/>
<path fill-rule="evenodd" clip-rule="evenodd" d="M43.3903 26.4365C43.1194 27.1433 42.8576 27.7694 42.605 28.3134C42.3523 28.8565 42.0329 29.3141 41.6448 29.6858C41.2567 30.0575 40.7654 30.3385 40.1703 30.5292C39.5752 30.7203 38.7903 30.8145 37.8172 30.8145C36.8427 30.8145 35.9003 30.6735 34.9897 30.3906C34.8739 30.3544 34.8019 30.2347 34.8211 30.1145L35.2807 27.2731C35.3052 27.1225 35.4599 27.04 35.6021 27.0931C36.1285 27.2905 36.6683 27.389 37.2217 27.389C37.6717 27.389 38.0415 27.3378 38.3307 27.2384C38.6189 27.1384 38.8581 26.9941 39.0473 26.8034C39.2375 26.6142 39.3951 26.3815 39.5214 26.1097C39.6467 25.8389 39.7822 25.5203 39.9268 25.1587L40.225 24.3965L34.6073 11.4099C34.5386 11.2506 34.6549 11.073 34.8273 11.073H38.6813C38.7798 11.073 38.8686 11.1338 38.9047 11.2265L42.227 19.8013H42.2808L45.1208 11.2381C45.1535 11.1396 45.2447 11.073 45.348 11.073H48.9921C49.1607 11.073 49.2765 11.2434 49.215 11.4012L43.3903 26.4365Z" fill="white"/>
<path fill-rule="evenodd" clip-rule="evenodd" d="M49.3927 30.4949V26.2463H45.264L44.9532 27.0481C44.6722 27.7814 44.3936 28.4495 44.1251 29.0264C43.8653 29.5844 43.5286 30.0619 43.1554 30.4949H49.3927Z" fill="white"/>
<path fill-rule="evenodd" clip-rule="evenodd" d="M106.221 30.5002L98.4856 9.97816L91.8108 26.2459H56.8073V30.4944L94.6527 30.5099L98.44 21.0111L106.345 40L118.922 0L106.221 30.5002Z" fill="white"/>
<path fill-rule="evenodd" clip-rule="evenodd" d="M33.7455 26.2461H0.239675C0.107109 26.2461 0 26.3537 0 26.487V30.2537C0 30.387 0.107109 30.4946 0.239675 30.4946H33.0582L33.7455 26.2461Z" fill="white"/>
<path fill-rule="evenodd" clip-rule="evenodd" d="M54.8049 17.6801C54.8049 18.6774 55.0897 19.4841 55.6579 20.1015C56.2256 20.7175 57.0234 21.026 58.0522 21.026C59.0801 21.026 59.8779 20.7175 60.4466 20.1015C61.0148 19.4841 61.2986 18.6774 61.2986 17.6801C61.2986 16.6842 61.0148 15.8781 60.4466 15.2602C59.8779 14.6447 59.0801 14.3362 58.0522 14.3362C57.0234 14.3362 56.2256 14.6447 55.6579 15.2602C55.0897 15.8781 54.8049 16.6842 54.8049 17.6801ZM51.3111 11.0729H54.5652C54.6973 11.0729 54.8049 11.181 54.8049 11.3138V12.8141H54.8591C55.022 12.5786 55.2333 12.3377 55.4951 12.0939C55.7559 11.8482 56.0633 11.6256 56.4149 11.4268C56.7664 11.2274 57.1497 11.0647 57.5652 10.9368C57.9792 10.8108 58.4211 10.748 58.8899 10.748C59.8644 10.748 60.7482 10.9155 61.5422 11.2506C62.3356 11.5861 63.0167 12.0572 63.5849 12.6645C64.1526 13.2723 64.5897 13.9925 64.8966 14.8257C65.2031 15.6603 65.3568 16.5746 65.3568 17.5725C65.3568 18.4964 65.2165 19.3798 64.9375 20.2227C64.6574 21.066 64.2607 21.8143 63.7468 22.4669C63.2328 23.1191 62.6056 23.64 61.8668 24.03C61.1267 24.4201 60.2881 24.6141 59.35 24.6141C58.5023 24.6141 57.7136 24.4828 56.9831 24.2207C56.253 23.9586 55.6526 23.5087 55.1838 22.8748H55.13V30.2467C55.13 30.3799 55.0229 30.4876 54.8903 30.4876H51.3111C51.1785 30.4876 51.0714 30.3799 51.0714 30.2467V11.3138C51.0714 11.181 51.1785 11.0729 51.3111 11.0729Z" fill="white"/>
<path fill-rule="evenodd" clip-rule="evenodd" d="M76.5917 16.1848C76.6099 15.496 76.3846 14.907 75.9154 14.4175C75.4466 13.9276 74.8419 13.6838 74.1032 13.6838C73.6517 13.6838 73.2554 13.7567 72.9125 13.9015C72.57 14.0473 72.277 14.2317 72.0335 14.4591C71.7895 14.6864 71.6008 14.9486 71.4653 15.2474C71.3299 15.5457 71.253 15.8595 71.2348 16.1848H76.5917ZM79.8189 21.8493C79.9317 21.9328 79.9538 22.0993 79.8635 22.2065C79.2425 22.9436 78.4754 23.5195 77.5662 23.9356C76.5734 24.3885 75.5455 24.6144 74.4821 24.6144C73.4716 24.6144 72.5206 24.4517 71.6281 24.1249C70.7348 23.7995 69.9591 23.3332 69.3006 22.7254C68.6425 22.1181 68.1238 21.3878 67.7448 20.5367C67.3668 19.6837 67.1766 18.7322 67.1766 17.6804C67.1766 16.6294 67.3668 15.6789 67.7448 14.8259C68.1238 13.9744 68.6425 13.244 69.3006 12.6367C69.9591 12.029 70.7348 11.5626 71.6281 11.2358C72.5206 10.9105 73.4716 10.7478 74.4821 10.7478C75.4192 10.7478 76.2713 10.9105 77.0383 11.2358C77.8044 11.5626 78.4543 12.029 78.986 12.6367C79.5187 13.244 79.9288 13.9744 80.217 14.8259C80.5062 15.6789 80.6508 16.6294 80.6508 17.6804V18.7173C80.6508 18.85 80.5436 18.9582 80.4111 18.9582H71.5479C71.3899 18.9582 71.2674 19.1136 71.3111 19.2657C71.4961 19.9034 71.8222 20.4213 72.29 20.822C72.8318 21.2835 73.4989 21.5157 74.2924 21.5157C74.9596 21.5157 75.5235 21.3646 75.9831 21.0658C76.3818 20.807 76.7358 20.4836 77.046 20.0955C77.1267 19.9951 77.2689 19.9709 77.3722 20.0472L79.8189 21.8493Z" fill="white"/>
<path fill-rule="evenodd" clip-rule="evenodd" d="M83.3711 11.0731H86.9499C87.0825 11.0731 87.1896 11.1808 87.1896 11.314V13.1943H87.2434C87.6766 12.3794 88.1901 11.7668 88.7852 11.3584C89.3808 10.9505 90.1286 10.7478 91.0311 10.7478C91.266 10.7478 91.5004 10.756 91.7348 10.7743C91.9692 10.7927 92.1858 10.8294 92.3837 10.882V14.6082C92.0955 14.5184 91.8116 14.4504 91.5316 14.404C91.2516 14.3591 90.9586 14.336 90.6522 14.336C89.8769 14.336 89.2636 14.4455 88.813 14.6633C88.362 14.8805 88.0143 15.1841 87.7708 15.5742C87.5282 15.9642 87.3697 16.4306 87.2977 16.9731C87.2251 17.5177 87.1896 18.1168 87.1896 18.7689V24.0481C87.1896 24.1809 87.0825 24.289 86.9499 24.289H83.3711C83.2386 24.289 83.1315 24.1809 83.1315 24.0481V11.314C83.1315 11.1808 83.2386 11.0731 83.3711 11.0731Z" fill="white"/>
</svg>
