<svg width="18" height="18" viewBox="0 0 18 18" fill="none" xmlns="http://www.w3.org/2000/svg">
<path d="M16.5975 10.3397L15.7939 9.8752C15.7424 9.84618 15.7004 9.80281 15.6731 9.75037C15.6458 9.69792 15.6343 9.63866 15.6401 9.5798C15.6674 9.32745 15.6807 9.07377 15.68 8.81995C15.68 8.59484 15.6705 8.38588 15.6515 8.19117L16.5965 7.64597C16.93 7.45322 17.1734 7.13613 17.2735 6.7642C17.3735 6.39227 17.3221 5.99584 17.1303 5.6618L15.7854 3.32335C15.6901 3.15749 15.5629 3.01209 15.4112 2.89552C15.2595 2.77894 15.0863 2.69349 14.9015 2.64407C14.7167 2.59464 14.5239 2.58222 14.3343 2.60751C14.1446 2.63281 13.9619 2.69532 13.7965 2.79145L13.1174 3.18563C13.0643 3.2115 13.0048 3.2215 12.9462 3.21442C12.8876 3.20734 12.8322 3.18349 12.7868 3.14574C12.4441 2.89421 12.0784 2.67573 11.6945 2.49321C11.6341 2.46866 11.5818 2.42773 11.5433 2.37505C11.5049 2.32236 11.4819 2.25999 11.477 2.19497V1.45316C11.4765 1.0679 11.3232 0.698556 11.0508 0.426133C10.7784 0.15371 10.4091 0.000441593 10.0238 -6.10352e-05H7.31302C6.92775 0.000441593 6.55841 0.15371 6.28599 0.426133C6.01357 0.698556 5.8603 1.0679 5.8598 1.45316V2.19402C5.85516 2.25924 5.83231 2.32186 5.79386 2.37475C5.75541 2.42763 5.7029 2.46868 5.64229 2.49321C5.25618 2.6755 4.88822 2.89399 4.54335 3.14574C4.49704 3.18359 4.4409 3.20745 4.38151 3.21451C4.32213 3.22158 4.26196 3.21156 4.20806 3.18563L3.53274 2.79145C3.36734 2.69532 3.18458 2.63281 2.99495 2.60751C2.80532 2.58222 2.61256 2.59464 2.42774 2.64407C2.24293 2.69349 2.0697 2.77894 1.91801 2.89552C1.76632 3.01209 1.63915 3.15749 1.54382 3.32335L0.193182 5.6656C0.0014031 5.99979 -0.0501009 6.39636 0.0499526 6.76845C0.150006 7.14053 0.393459 7.45779 0.726979 7.65072L1.67205 8.19497C1.6521 8.39063 1.64355 8.59864 1.64355 8.82375C1.64304 9.07757 1.65635 9.33123 1.68345 9.5836C1.68942 9.64237 1.67814 9.70161 1.65098 9.75407C1.62382 9.80653 1.58196 9.84995 1.53053 9.87899L0.726979 10.3425C0.394133 10.5351 0.151048 10.8516 0.0508473 11.2228C-0.0493534 11.5941 0.00147754 11.9899 0.192232 12.3238L1.54287 14.6699C1.7358 15.0034 2.05306 15.2469 2.42515 15.3469C2.79724 15.447 3.19381 15.3955 3.52799 15.2037L4.45976 14.6661C4.50446 14.638 4.55588 14.6223 4.60867 14.6208C4.66146 14.6193 4.71368 14.632 4.75991 14.6575C5.06166 14.8593 5.37931 15.0362 5.70972 15.1866C5.758 15.2126 5.79796 15.2517 5.82501 15.2994C5.85206 15.3472 5.86511 15.4015 5.86265 15.4563V16.5467C5.86315 16.932 6.01642 17.3013 6.28884 17.5737C6.56126 17.8462 6.9306 17.9994 7.31587 17.9999H10.0228C10.4081 17.9994 10.7775 17.8462 11.0499 17.5737C11.3223 17.3013 11.4756 16.932 11.4761 16.5467V15.4582C11.4737 15.4035 11.4868 15.3491 11.5139 15.3014C11.5409 15.2537 11.5808 15.2146 11.629 15.1885C11.9544 15.0384 12.2673 14.8625 12.5646 14.6623C12.6107 14.6359 12.6631 14.6227 12.7162 14.624C12.7692 14.6254 12.8209 14.6412 12.8657 14.6699L13.7984 15.2065C14.1325 15.398 14.5288 15.4493 14.9007 15.3493C15.2725 15.2493 15.5896 15.006 15.7825 14.6727L17.1313 12.3238C17.323 11.9898 17.3745 11.5934 17.2744 11.2214C17.1744 10.8495 16.9309 10.5324 16.5975 10.3397ZM16.1425 11.7549L14.7919 14.1C14.7715 14.1359 14.7442 14.1673 14.7116 14.1926C14.679 14.2178 14.6417 14.2364 14.6018 14.2472C14.562 14.2579 14.5205 14.2607 14.4795 14.2553C14.4386 14.25 14.3992 14.2366 14.3635 14.2159L13.4317 13.6792C13.2023 13.5442 12.9397 13.476 12.6735 13.4822C12.4074 13.4884 12.1482 13.5688 11.9253 13.7144C11.679 13.8801 11.4198 14.0259 11.1503 14.1503C10.9038 14.2672 10.6959 14.4522 10.5512 14.6835C10.4064 14.9147 10.3309 15.1826 10.3334 15.4554V16.5467C10.3334 16.6298 10.3004 16.7096 10.2416 16.7684C10.1829 16.8271 10.1031 16.8602 10.02 16.8602H7.31302C7.22989 16.8602 7.15016 16.8271 7.09138 16.7684C7.0326 16.7096 6.99958 16.6298 6.99958 16.5467V15.4582C7.00205 15.1851 6.92626 14.9169 6.78117 14.6855C6.63608 14.4541 6.42776 14.269 6.18083 14.1522C5.90789 14.0278 5.64551 13.8813 5.39628 13.7144C5.1682 13.5635 4.90041 13.4838 4.62693 13.4855C4.36922 13.4857 4.11608 13.5535 3.89272 13.6821L2.96285 14.2149C2.8907 14.256 2.80525 14.267 2.72505 14.2455C2.64485 14.224 2.57637 14.1717 2.53448 14.1L1.18099 11.7539C1.16043 11.7182 1.14711 11.6788 1.14181 11.6379C1.1365 11.597 1.13931 11.5555 1.15007 11.5157C1.16084 11.4759 1.17934 11.4386 1.20453 11.406C1.22972 11.3734 1.2611 11.3461 1.29687 11.3256L2.10042 10.8611C2.34304 10.7213 2.53981 10.514 2.66678 10.2645C2.79376 10.0149 2.84547 9.7338 2.81563 9.45538C2.79302 9.24528 2.78192 9.03411 2.78239 8.8228C2.77905 8.54621 2.80131 8.2699 2.84887 7.99741C2.87077 7.88128 2.85602 7.76122 2.80667 7.65384C2.75732 7.54646 2.67581 7.45708 2.57343 7.39807L1.29592 6.66291C1.22403 6.6212 1.17158 6.55272 1.15005 6.47245C1.12851 6.39217 1.13964 6.30664 1.18099 6.23454L2.52973 3.89229C2.55004 3.85647 2.57731 3.82508 2.60994 3.79996C2.64256 3.77484 2.67988 3.7565 2.7197 3.74602C2.76004 3.73368 2.80251 3.72992 2.84439 3.73499C2.88627 3.74006 2.92662 3.75385 2.96285 3.77547L3.64007 4.16869C3.88492 4.30645 4.16459 4.36993 4.44492 4.35137C4.72525 4.33282 4.99411 4.23304 5.21867 4.06421C5.50543 3.85497 5.81137 3.67338 6.13239 3.52186C6.3896 3.40681 6.60839 3.22035 6.76278 2.98465C6.91717 2.74894 7.00067 2.47388 7.00338 2.19212V1.45126C7.00338 1.36813 7.0364 1.28841 7.09518 1.22963C7.15396 1.17084 7.23369 1.13782 7.31682 1.13782H10.0238C10.1069 1.13782 10.1867 1.17084 10.2454 1.22963C10.3042 1.28841 10.3372 1.36813 10.3372 1.45126V2.19307C10.3398 2.47462 10.423 2.74953 10.577 2.98522C10.7311 3.2209 10.9495 3.40748 11.2063 3.52281C11.5251 3.67458 11.8288 3.85617 12.1134 4.06516C12.3375 4.23454 12.6061 4.33483 12.8863 4.35372C13.1666 4.37262 13.4463 4.3093 13.691 4.17154L14.3607 3.77547C14.3961 3.75414 14.4356 3.74035 14.4766 3.73496C14.5176 3.72957 14.5593 3.73269 14.5991 3.74412C14.6389 3.7546 14.6762 3.77294 14.7088 3.79806C14.7415 3.82318 14.7687 3.85457 14.789 3.89039L16.1378 6.23264C16.1791 6.30459 16.1902 6.38999 16.1686 6.47011C16.1471 6.55022 16.0947 6.61853 16.0228 6.66006L14.7453 7.39617C14.643 7.45518 14.5614 7.54456 14.5121 7.65194C14.4627 7.75932 14.448 7.87938 14.4699 7.99551C14.5175 8.268 14.5397 8.54431 14.5364 8.8209C14.5371 9.03253 14.526 9.24403 14.5031 9.45443C14.4735 9.73293 14.5254 10.014 14.6526 10.2636C14.7797 10.5132 14.9766 10.7204 15.2193 10.8602L16.0238 11.3246C16.0599 11.3449 16.0917 11.3721 16.1173 11.4047C16.1428 11.4373 16.1617 11.4746 16.1727 11.5145C16.1837 11.5544 16.1868 11.5962 16.1816 11.6372C16.1764 11.6783 16.1631 11.718 16.1425 11.7539V11.7549ZM8.66176 5.13181C7.89681 5.13181 7.14904 5.35864 6.513 5.78362C5.87697 6.20861 5.38124 6.81265 5.08851 7.51938C4.79577 8.2261 4.71918 9.00375 4.86842 9.75401C5.01765 10.5043 5.38601 11.1934 5.92691 11.7343C6.46781 12.2752 7.15696 12.6436 7.90722 12.7928C8.65747 12.942 9.43512 12.8654 10.1418 12.5727C10.8486 12.28 11.4526 11.7843 11.8776 11.1482C12.3026 10.5122 12.5294 9.76441 12.5294 8.99946C12.5284 7.97401 12.1206 6.99084 11.3955 6.26573C10.6704 5.54062 9.68722 5.13281 8.66176 5.13181ZM8.66176 11.7264C8.12219 11.7264 7.59475 11.5664 7.14613 11.2666C6.69752 10.9668 6.34788 10.5407 6.14144 10.0422C5.935 9.5437 5.88103 8.99516 5.98637 8.46598C6.0917 7.9368 6.3516 7.45074 6.73319 7.06928C7.11479 6.68782 7.60094 6.42809 8.13016 6.32294C8.65938 6.21779 9.20789 6.27194 9.70633 6.47856C10.2048 6.68517 10.6307 7.03496 10.9304 7.48368C11.23 7.9324 11.3898 8.4599 11.3896 8.99946C11.3889 9.72271 11.1012 10.4161 10.5898 10.9275C10.0784 11.4389 9.385 11.7266 8.66176 11.7273V11.7264Z" fill="white"/>
</svg>
