<svg width="18" height="18" viewBox="0 0 18 18" fill="none" xmlns="http://www.w3.org/2000/svg">
<path d="M9.00006 1.41669C7.41781 1.41669 5.87109 1.88588 4.5555 2.76493C3.23991 3.64398 2.21453 4.89341 1.60902 6.35522C1.00352 7.81703 0.845096 9.42556 1.15378 10.9774C1.46246 12.5293 2.22439 13.9547 3.34321 15.0735C4.46203 16.1924 5.88749 16.9543 7.43934 17.263C8.99119 17.5716 10.5997 17.4132 12.0615 16.8077C13.5233 16.2022 14.7728 15.1768 15.6518 13.8612C16.5309 12.5457 17.0001 10.9989 17.0001 9.41669C16.9979 7.29563 16.1543 5.26208 14.6545 3.76227C13.1547 2.26246 11.1211 1.41889 9.00006 1.41669ZM9.00006 16.4167C7.61559 16.4167 6.26221 16.0061 5.11107 15.237C3.95992 14.4678 3.06272 13.3746 2.5329 12.0955C2.00309 10.8164 1.86447 9.40892 2.13456 8.05105C2.40466 6.69319 3.07135 5.44591 4.05031 4.46694C5.02928 3.48797 6.27656 2.82129 7.63443 2.55119C8.9923 2.28109 10.3998 2.41972 11.6788 2.94953C12.9579 3.47934 14.0512 4.37655 14.8203 5.52769C15.5895 6.67884 16.0001 8.03222 16.0001 9.41669C15.9979 11.2725 15.2596 13.0517 13.9474 14.364C12.6351 15.6763 10.8559 16.4145 9.00006 16.4167ZM11.8967 10.1667C11.8967 10.2993 11.844 10.4265 11.7503 10.5202C11.6565 10.614 11.5293 10.6667 11.3967 10.6667H8.69006C8.55745 10.6667 8.43028 10.614 8.33651 10.5202C8.24274 10.4265 8.19006 10.2993 8.19006 10.1667V6.58335C8.19006 6.51769 8.20299 6.45267 8.22812 6.39201C8.25325 6.33135 8.29008 6.27623 8.33651 6.2298C8.38294 6.18337 8.43806 6.14654 8.49872 6.12141C8.55938 6.09629 8.6244 6.08335 8.69006 6.08335C8.75572 6.08335 8.82074 6.09629 8.8814 6.12141C8.94207 6.14654 8.99718 6.18337 9.04361 6.2298C9.09004 6.27623 9.12687 6.33135 9.152 6.39201C9.17713 6.45267 9.19006 6.51769 9.19006 6.58335V9.66669H11.3967C11.4624 9.66669 11.5274 9.67962 11.5881 9.70475C11.6487 9.72987 11.7039 9.7667 11.7503 9.81313C11.7967 9.85956 11.8335 9.91468 11.8587 9.97534C11.8838 10.036 11.8967 10.101 11.8967 10.1667ZM1.02006 4.02585C0.925277 4.11417 0.799913 4.16226 0.670379 4.15997C0.540845 4.15768 0.417255 4.10521 0.325646 4.0136C0.234037 3.92199 0.181563 3.7984 0.179277 3.66887C0.176992 3.53933 0.225074 3.41397 0.313394 3.31919L2.90339 0.73002C2.99818 0.6417 3.12354 0.593618 3.25308 0.595903C3.38261 0.598189 3.5062 0.650663 3.59781 0.742272C3.68942 0.83388 3.74189 0.957471 3.74418 1.087C3.74646 1.21654 3.69838 1.3419 3.61006 1.43669L1.02006 4.02585ZM17.6867 4.02585C17.593 4.11949 17.4659 4.17208 17.3334 4.17208C17.2009 4.17208 17.0738 4.11949 16.9801 4.02585L14.3909 1.43669C14.3026 1.3419 14.2545 1.21654 14.2568 1.087C14.2591 0.957471 14.3115 0.83388 14.4031 0.742272C14.4948 0.650663 14.6183 0.598189 14.7479 0.595903C14.8774 0.593618 15.0028 0.6417 15.0976 0.73002L17.6867 3.31919C17.7804 3.41294 17.833 3.54002 17.833 3.67252C17.833 3.80502 17.7804 3.9321 17.6867 4.02585Z" fill="#47642E"/>
</svg>
