<svg width="18" height="18" viewBox="0 0 18 18" fill="none" xmlns="http://www.w3.org/2000/svg">
<path d="M14.5747 1.21545H13.5499V0.534653C13.5499 0.392855 13.4936 0.256863 13.3933 0.156596C13.293 0.0563295 13.157 0 13.0152 0C12.8734 0 12.7375 0.0563295 12.6372 0.156596C12.5369 0.256863 12.4806 0.392855 12.4806 0.534653V1.21545H4.5998V0.534653C4.5998 0.392855 4.54347 0.256863 4.44321 0.156596C4.34294 0.0563295 4.20695 0 4.06515 0C3.92335 0 3.78736 0.0563295 3.68709 0.156596C3.58682 0.256863 3.53049 0.392855 3.53049 0.534653V1.21545H2.50485C1.84066 1.21639 1.20395 1.48072 0.734381 1.95046C0.264809 2.4202 0.000707174 3.057 0 3.72119V15.4951C0.000942903 16.1592 0.265149 16.7958 0.734696 17.2653C1.20424 17.7349 1.84081 17.9991 2.50485 18H14.5747C15.2391 17.9995 15.8761 17.7354 16.346 17.2656C16.8158 16.7957 17.0799 16.1587 17.0804 15.4943V3.72119C17.0799 3.05677 16.8158 2.4197 16.346 1.94988C15.8761 1.48007 15.2391 1.21592 14.5747 1.21545ZM16.0111 15.4943C16.0106 15.8751 15.8591 16.2402 15.5898 16.5094C15.3206 16.7787 14.9555 16.9302 14.5747 16.9307H2.50485C2.12427 16.9302 1.7594 16.7788 1.49029 16.5097C1.22117 16.2406 1.06978 15.8757 1.06931 15.4951V6.38733H16.012L16.0111 15.4943ZM16.0111 5.31802H1.06931V3.72119C1.06954 3.34045 1.22083 2.97536 1.48997 2.70605C1.75911 2.43674 2.12411 2.28522 2.50485 2.28475H3.53049V2.8996C3.53049 3.0414 3.58682 3.17739 3.68709 3.27766C3.78736 3.37793 3.92335 3.43426 4.06515 3.43426C4.20695 3.43426 4.34294 3.37793 4.44321 3.27766C4.54347 3.17739 4.5998 3.0414 4.5998 2.8996V2.28475H12.4815V2.8996C12.4815 3.0414 12.5378 3.17739 12.6381 3.27766C12.7383 3.37793 12.8743 3.43426 13.0161 3.43426C13.1579 3.43426 13.2939 3.37793 13.3942 3.27766C13.4945 3.17739 13.5508 3.0414 13.5508 2.8996V2.28475H14.5755C14.9562 2.28522 15.3212 2.43659 15.5904 2.70568C15.8597 2.97477 16.0113 3.33963 16.012 3.7203L16.0111 5.31802ZM3.02881 9.64248C3.02881 9.42217 3.09414 9.20682 3.21653 9.02365C3.33892 8.84047 3.51289 8.69771 3.71642 8.6134C3.91995 8.5291 4.14391 8.50704 4.35998 8.55002C4.57604 8.59299 4.77452 8.69908 4.93029 8.85486C5.08607 9.01063 5.19215 9.2091 5.23513 9.42517C5.27811 9.64124 5.25605 9.8652 5.17175 10.0687C5.08744 10.2723 4.94467 10.4462 4.7615 10.5686C4.57833 10.691 4.36297 10.7563 4.14267 10.7563C3.84726 10.7563 3.56394 10.639 3.35505 10.4301C3.14616 10.2212 3.02881 9.93789 3.02881 9.64248ZM7.42634 9.64248C7.42634 9.42217 7.49166 9.20682 7.61406 9.02365C7.73645 8.84047 7.91041 8.69771 8.11394 8.6134C8.31747 8.5291 8.54143 8.50704 8.7575 8.55002C8.97357 8.59299 9.17204 8.69908 9.32782 8.85486C9.48359 9.01063 9.58968 9.2091 9.63266 9.42517C9.67564 9.64124 9.65358 9.8652 9.56927 10.0687C9.48497 10.2723 9.3422 10.4462 9.15903 10.5686C8.97585 10.691 8.7605 10.7563 8.5402 10.7563C8.24478 10.7563 7.96147 10.639 7.75258 10.4301C7.54369 10.2212 7.42634 9.93789 7.42634 9.64248ZM11.8239 9.64248C11.8239 9.42217 11.8892 9.20682 12.0116 9.02365C12.134 8.84047 12.3079 8.69771 12.5115 8.6134C12.715 8.5291 12.939 8.50704 13.155 8.55002C13.3711 8.59299 13.5696 8.69908 13.7253 8.85486C13.8811 9.01063 13.9872 9.2091 14.0302 9.42517C14.0732 9.64124 14.0511 9.8652 13.9668 10.0687C13.8825 10.2723 13.7397 10.4462 13.5566 10.5686C13.3734 10.691 13.158 10.7563 12.9377 10.7563C12.6423 10.7563 12.359 10.639 12.1501 10.4301C11.9412 10.2212 11.8239 9.93789 11.8239 9.64248ZM3.02881 13.2772C3.02881 13.0569 3.09414 12.8416 3.21653 12.6584C3.33892 12.4752 3.51289 12.3325 3.71642 12.2482C3.91995 12.1638 4.14391 12.1418 4.35998 12.1848C4.57604 12.2277 4.77452 12.3338 4.93029 12.4896C5.08607 12.6454 5.19215 12.8439 5.23513 13.0599C5.27811 13.276 5.25605 13.5 5.17175 13.7035C5.08744 13.907 4.94467 14.081 4.7615 14.2034C4.57833 14.3258 4.36297 14.3911 4.14267 14.3911C3.84726 14.3911 3.56394 14.2737 3.35505 14.0648C3.14616 13.856 3.02881 13.5726 3.02881 13.2772ZM7.42634 13.2772C7.42598 13.0569 7.49101 12.8413 7.61319 12.6579C7.73537 12.4745 7.9092 12.3315 8.1127 12.2469C8.31621 12.1623 8.54022 12.14 8.75641 12.1828C8.97259 12.2255 9.17123 12.3315 9.32718 12.4872C9.48314 12.6429 9.5894 12.8414 9.63252 13.0575C9.67565 13.2736 9.65369 13.4977 9.56944 13.7013C9.48519 13.9049 9.34242 14.079 9.15921 14.2015C8.976 14.3239 8.76057 14.3893 8.5402 14.3893C8.24509 14.3893 7.96205 14.2722 7.75321 14.0637C7.54437 13.8552 7.42681 13.5723 7.42634 13.2772ZM11.8239 13.2772C11.8239 13.0569 11.8892 12.8416 12.0116 12.6584C12.134 12.4752 12.3079 12.3325 12.5115 12.2482C12.715 12.1638 12.939 12.1418 13.155 12.1848C13.3711 12.2277 13.5696 12.3338 13.7253 12.4896C13.8811 12.6454 13.9872 12.8439 14.0302 13.0599C14.0732 13.276 14.0511 13.5 13.9668 13.7035C13.8825 13.907 13.7397 14.081 13.5566 14.2034C13.3734 14.3258 13.158 14.3911 12.9377 14.3911C12.6423 14.3911 12.359 14.2737 12.1501 14.0648C11.9412 13.856 11.8239 13.5726 11.8239 13.2772Z" fill="#F7972E"/>
</svg>
