<svg width="20" height="12" viewBox="0 0 20 12" fill="none" xmlns="http://www.w3.org/2000/svg">
<path d="M17.3781 4.2117L15.2664 3.57003C14.9378 3.47142 14.6364 3.29832 14.3856 3.0642L13.0656 1.80753C12.1297 0.918066 10.8876 0.422742 9.59643 0.424198H8.2581C7.53985 0.426324 6.83021 0.580635 6.17593 0.876962C5.52166 1.17329 4.93761 1.6049 4.46227 2.14336L3.5831 3.14753C3.17219 3.60991 2.66272 3.97414 2.09227 4.21336L1.75893 4.35587C1.33403 4.52959 0.971017 4.8268 0.716829 5.20904C0.462641 5.59129 0.32897 6.041 0.333101 6.50003V7.9167C0.333542 8.28978 0.482 8.64744 0.745886 8.91117C1.00977 9.1749 1.36752 9.32314 1.7406 9.32337H2.2356C2.35697 9.95637 2.69515 10.5273 3.19196 10.9379C3.68877 11.3485 4.31315 11.5731 4.95768 11.5731C5.60221 11.5731 6.22659 11.3485 6.72341 10.9379C7.22022 10.5273 7.5584 9.95637 7.67977 9.32337H12.3198C12.4407 9.95663 12.7786 10.5279 13.2754 10.9388C13.7722 11.3497 14.3967 11.5745 15.0414 11.5745C15.6861 11.5745 16.3107 11.3497 16.8074 10.9388C17.3042 10.5279 17.6422 9.95663 17.7631 9.32337H18.2589C18.632 9.32314 18.9898 9.1749 19.2536 8.91117C19.5175 8.64744 19.666 8.28978 19.6664 7.9167V7.30253C19.6635 6.61089 19.4401 5.9382 19.0285 5.38232C18.6169 4.82644 18.0388 4.41635 17.3781 4.2117ZM9.5206 1.42336H9.59643C10.6313 1.42288 11.6268 1.81995 12.3773 2.53253L13.6998 3.79086C13.7589 3.8467 13.8314 3.8842 13.8939 3.93503H9.5206V1.42336ZM4.3331 3.8092L5.2131 2.8042C5.59448 2.37221 6.06298 2.02583 6.58779 1.78784C7.11261 1.54985 7.68185 1.42563 8.2581 1.42336H8.5206V3.9342H4.2106C4.24977 3.8917 4.29643 3.85336 4.3331 3.8092ZM4.9556 10.5767C4.60454 10.5767 4.26136 10.4726 3.96946 10.2776C3.67757 10.0825 3.45006 9.8053 3.31571 9.48096C3.18137 9.15662 3.14622 8.79973 3.21471 8.45541C3.2832 8.1111 3.45225 7.79482 3.70049 7.54658C3.94872 7.29835 4.265 7.12929 4.60931 7.0608C4.95363 6.99232 5.31052 7.02747 5.63486 7.16181C5.9592 7.29616 6.23642 7.52366 6.43146 7.81556C6.6265 8.10746 6.7306 8.45064 6.7306 8.8017C6.72994 9.27182 6.54306 9.72254 6.21087 10.0552C5.87868 10.3879 5.42822 10.5754 4.9581 10.5767H4.9556ZM15.0389 10.5767C14.6879 10.5765 14.3448 10.4723 14.053 10.2772C13.7612 10.082 13.5339 9.80474 13.3996 9.48038C13.2654 9.15603 13.2304 8.79916 13.299 8.4549C13.3676 8.11064 13.5367 7.79444 13.7849 7.54629C14.0332 7.29813 14.3495 7.12917 14.6938 7.06074C15.0381 6.99232 15.3949 7.02752 15.7192 7.16189C16.0435 7.29626 16.3207 7.52377 16.5157 7.81565C16.7107 8.10753 16.8148 8.45067 16.8148 8.8017C16.8141 9.27197 16.6271 9.72281 16.2947 10.0555C15.9624 10.3882 15.5117 10.5756 15.0414 10.5767H15.0389ZM18.6664 7.9167C18.667 7.97037 18.6568 8.02361 18.6365 8.0733C18.6163 8.12299 18.5863 8.16813 18.5483 8.20609C18.5104 8.24404 18.4652 8.27403 18.4155 8.29431C18.3658 8.3146 18.3126 8.32476 18.2589 8.3242H17.7681C17.6575 7.68115 17.3233 7.09786 16.8243 6.67738C16.3254 6.2569 15.6939 6.02629 15.0414 6.02629C14.3889 6.02629 13.7575 6.2569 13.2585 6.67738C12.7596 7.09786 12.4253 7.68115 12.3148 8.3242H7.68477C7.57422 7.68115 7.23995 7.09786 6.74101 6.67738C6.24208 6.2569 5.61059 6.02629 4.9581 6.02629C4.30561 6.02629 3.67412 6.2569 3.17519 6.67738C2.67625 7.09786 2.34198 7.68115 2.23143 8.3242H1.7406C1.68693 8.32476 1.63369 8.3146 1.584 8.29431C1.53431 8.27403 1.48916 8.24404 1.45121 8.20609C1.41326 8.16813 1.38327 8.12299 1.36298 8.0733C1.3427 8.02361 1.33254 7.97037 1.3331 7.9167V6.50003C1.33342 6.23905 1.41109 5.98402 1.5563 5.76717C1.70151 5.55032 1.90774 5.38138 2.14893 5.2817L2.48227 5.13836C2.6231 5.08003 2.7606 5.0092 2.89893 4.93753H16.3156L17.0831 5.1667C17.5394 5.30825 17.9388 5.59137 18.2235 5.97507C18.5081 6.35877 18.6633 6.82311 18.6664 7.30086V7.9167Z" fill="#47642E"/>
</svg>
