<svg width="18" height="18" viewBox="0 0 18 18" fill="none" xmlns="http://www.w3.org/2000/svg">
<path d="M14.5747 1.21554H13.5499V0.534745C13.5499 0.392946 13.4936 0.256955 13.3933 0.156688C13.293 0.0564211 13.157 9.15527e-05 13.0152 9.15527e-05C12.8734 9.15527e-05 12.7375 0.0564211 12.6372 0.156688C12.5369 0.256955 12.4806 0.392946 12.4806 0.534745V1.21554H4.5998V0.534745C4.5998 0.392946 4.54347 0.256955 4.44321 0.156688C4.34294 0.0564211 4.20695 9.15527e-05 4.06515 9.15527e-05C3.92335 9.15527e-05 3.78736 0.0564211 3.68709 0.156688C3.58682 0.256955 3.53049 0.392946 3.53049 0.534745V1.21554H2.50485C1.84066 1.21648 1.20395 1.48081 0.734381 1.95055C0.264809 2.42029 0.000707174 3.05709 0 3.72128V15.4952C0.000942903 16.1593 0.265149 16.7958 0.734696 17.2654C1.20424 17.7349 1.84081 17.9991 2.50485 18.0001H14.5747C15.2391 17.9996 15.8761 17.7355 16.346 17.2657C16.8158 16.7958 17.0799 16.1588 17.0804 15.4943V3.72128C17.0799 3.05686 16.8158 2.41979 16.346 1.94997C15.8761 1.48016 15.2391 1.21601 14.5747 1.21554ZM16.0111 15.4943C16.0106 15.8752 15.8591 16.2403 15.5898 16.5095C15.3206 16.7788 14.9555 16.9303 14.5747 16.9308H2.50485C2.12427 16.9303 1.7594 16.7789 1.49029 16.5098C1.22117 16.2407 1.06978 15.8758 1.06931 15.4952V6.38742H16.012L16.0111 15.4943ZM16.0111 5.31811H1.06931V3.72128C1.06954 3.34054 1.22083 2.97545 1.48997 2.70614C1.75911 2.43683 2.12411 2.28532 2.50485 2.28484H3.53049V2.8997C3.53049 3.04149 3.58682 3.17749 3.68709 3.27775C3.78736 3.37802 3.92335 3.43435 4.06515 3.43435C4.20695 3.43435 4.34294 3.37802 4.44321 3.27775C4.54347 3.17749 4.5998 3.04149 4.5998 2.8997V2.28484H12.4815V2.8997C12.4815 3.04149 12.5378 3.17749 12.6381 3.27775C12.7383 3.37802 12.8743 3.43435 13.0161 3.43435C13.1579 3.43435 13.2939 3.37802 13.3942 3.27775C13.4945 3.17749 13.5508 3.04149 13.5508 2.8997V2.28484H14.5755C14.9562 2.28532 15.3212 2.43668 15.5904 2.70577C15.8597 2.97486 16.0113 3.33972 16.012 3.72039L16.0111 5.31811ZM3.02881 9.64257C3.02881 9.42227 3.09414 9.20691 3.21653 9.02374C3.33892 8.84056 3.51289 8.6978 3.71642 8.61349C3.91995 8.52919 4.14391 8.50713 4.35998 8.55011C4.57604 8.59309 4.77452 8.69917 4.93029 8.85495C5.08607 9.01072 5.19215 9.2092 5.23513 9.42526C5.27811 9.64133 5.25605 9.86529 5.17175 10.0688C5.08744 10.2724 4.94467 10.4463 4.7615 10.5687C4.57833 10.6911 4.36297 10.7564 4.14267 10.7564C3.84726 10.7564 3.56394 10.6391 3.35505 10.4302C3.14616 10.2213 3.02881 9.93798 3.02881 9.64257ZM7.42634 9.64257C7.42634 9.42227 7.49166 9.20691 7.61406 9.02374C7.73645 8.84056 7.91041 8.6978 8.11394 8.61349C8.31747 8.52919 8.54143 8.50713 8.7575 8.55011C8.97357 8.59309 9.17204 8.69917 9.32782 8.85495C9.48359 9.01072 9.58968 9.2092 9.63266 9.42526C9.67564 9.64133 9.65358 9.86529 9.56927 10.0688C9.48497 10.2724 9.3422 10.4463 9.15903 10.5687C8.97585 10.6911 8.7605 10.7564 8.5402 10.7564C8.24478 10.7564 7.96147 10.6391 7.75258 10.4302C7.54369 10.2213 7.42634 9.93798 7.42634 9.64257ZM11.8239 9.64257C11.8239 9.42227 11.8892 9.20691 12.0116 9.02374C12.134 8.84056 12.3079 8.6978 12.5115 8.61349C12.715 8.52919 12.939 8.50713 13.155 8.55011C13.3711 8.59309 13.5696 8.69917 13.7253 8.85495C13.8811 9.01072 13.9872 9.2092 14.0302 9.42526C14.0732 9.64133 14.0511 9.86529 13.9668 10.0688C13.8825 10.2724 13.7397 10.4463 13.5566 10.5687C13.3734 10.6911 13.158 10.7564 12.9377 10.7564C12.6423 10.7564 12.359 10.6391 12.1501 10.4302C11.9412 10.2213 11.8239 9.93798 11.8239 9.64257ZM3.02881 13.2773C3.02881 13.057 3.09414 12.8417 3.21653 12.6585C3.33892 12.4753 3.51289 12.3326 3.71642 12.2482C3.91995 12.1639 4.14391 12.1419 4.35998 12.1849C4.57604 12.2278 4.77452 12.3339 4.93029 12.4897C5.08607 12.6455 5.19215 12.8439 5.23513 13.06C5.27811 13.2761 5.25605 13.5 5.17175 13.7036C5.08744 13.9071 4.94467 14.0811 4.7615 14.2035C4.57833 14.3259 4.36297 14.3912 4.14267 14.3912C3.84726 14.3912 3.56394 14.2738 3.35505 14.0649C3.14616 13.856 3.02881 13.5727 3.02881 13.2773ZM7.42634 13.2773C7.42598 13.0569 7.49101 12.8414 7.61319 12.658C7.73537 12.4746 7.9092 12.3316 8.1127 12.247C8.31621 12.1624 8.54022 12.1401 8.75641 12.1829C8.97259 12.2256 9.17123 12.3316 9.32718 12.4873C9.48314 12.643 9.5894 12.8415 9.63252 13.0576C9.67565 13.2737 9.65369 13.4977 9.56944 13.7014C9.48519 13.905 9.34242 14.0791 9.15921 14.2016C8.976 14.324 8.76057 14.3894 8.5402 14.3894C8.24509 14.3894 7.96205 14.2723 7.75321 14.0638C7.54437 13.8553 7.42681 13.5724 7.42634 13.2773ZM11.8239 13.2773C11.8239 13.057 11.8892 12.8417 12.0116 12.6585C12.134 12.4753 12.3079 12.3326 12.5115 12.2482C12.715 12.1639 12.939 12.1419 13.155 12.1849C13.3711 12.2278 13.5696 12.3339 13.7253 12.4897C13.8811 12.6455 13.9872 12.8439 14.0302 13.06C14.0732 13.2761 14.0511 13.5 13.9668 13.7036C13.8825 13.9071 13.7397 14.0811 13.5566 14.2035C13.3734 14.3259 13.158 14.3912 12.9377 14.3912C12.6423 14.3912 12.359 14.2738 12.1501 14.0649C11.9412 13.856 11.8239 13.5727 11.8239 13.2773Z" fill="white"/>
</svg>
