<svg width="20" height="20" viewBox="0 0 20 20" fill="none" xmlns="http://www.w3.org/2000/svg">
<path d="M16.5934 8.6168C17.3688 8.6168 18 8.00717 18 7.2583V6.40925C18 5.66038 17.3688 5.05076 16.5934 5.05076H16.2418V4.90557C16.2418 2.75151 14.4281 0.999908 12.1978 0.999908H4.28571C3.02505 0.999908 2 1.98991 2 3.20746V16.7924C2 18.0099 3.02593 18.9999 4.28571 18.9999H12.1978C14.4281 18.9999 16.2418 17.2483 16.2418 15.0942V13.1983H16.5934C17.3688 13.1983 18 12.5887 18 11.8398V10.9908C18 10.2419 17.3688 9.63227 16.5934 9.63227H16.2418V8.6168H16.5934ZM16.2418 6.06963H16.5934C16.7877 6.06963 16.9451 6.22161 16.9451 6.40925V7.2583C16.9451 7.44595 16.7877 7.59793 16.5934 7.59793H16.2418V6.06963ZM15.1868 5.56019V8.10736V10.1417V12.6889V15.0942C15.1868 16.6862 13.8462 17.981 12.1978 17.981H4.28571C3.60703 17.981 3.05494 17.4478 3.05494 16.7924V3.20746C3.05494 2.55198 3.60703 2.01878 4.28571 2.01878H12.1978C13.8462 2.01878 15.1868 3.31359 15.1868 4.90557V5.56019ZM16.5934 10.6511C16.7877 10.6511 16.9451 10.8031 16.9451 10.9908V11.8398C16.9451 12.0275 16.7877 12.1794 16.5934 12.1794H16.2418V10.6511H16.5934Z" fill="white"/>
<mask id="path-3-inside-1" fill="white">
<path d="M11.1282 10.3029C11.5216 9.83699 11.7394 9.24799 11.7437 8.6382C11.7437 7.93851 11.4658 7.26747 10.971 6.77271C10.4763 6.27795 9.80524 6 9.10554 6C8.40585 6 7.73481 6.27795 7.24005 6.77271C6.7453 7.26747 6.46734 7.93851 6.46734 8.6382C6.4717 9.24799 6.6895 9.83699 7.08292 10.3029C6.59493 10.6305 6.19521 11.0734 5.91911 11.5923C5.64302 12.1112 5.49908 12.6901 5.5 13.2779C5.5 13.4179 5.55559 13.5521 5.65455 13.651C5.7535 13.75 5.88771 13.8056 6.02764 13.8056C6.16758 13.8056 6.30179 13.75 6.40074 13.651C6.49969 13.5521 6.55528 13.4179 6.55528 13.2779C6.55365 12.805 6.68462 12.341 6.93332 11.9387C7.18203 11.5365 7.53851 11.212 7.96232 11.002C8.31615 11.1796 8.70657 11.2721 9.10247 11.2721C9.49836 11.2721 9.88879 11.1796 10.2426 11.002C10.6664 11.212 11.0229 11.5365 11.2716 11.9387C11.5203 12.341 11.6513 12.805 11.6496 13.2779C11.6496 13.4179 11.7052 13.5521 11.8042 13.651C11.9031 13.75 12.0374 13.8056 12.1773 13.8056C12.3172 13.8056 12.4514 13.75 12.5504 13.651C12.6493 13.5521 12.7049 13.4179 12.7049 13.2779C12.7065 12.6907 12.5635 12.1121 12.2885 11.5933C12.0135 11.0744 11.615 10.6312 11.1282 10.3029ZM9.10554 10.215C8.79247 10.215 8.48643 10.1221 8.22612 9.94819C7.96581 9.77426 7.76292 9.52704 7.64312 9.2378C7.52331 8.94856 7.49196 8.63029 7.55304 8.32323C7.61412 8.01618 7.76488 7.73413 7.98625 7.51275C8.20763 7.29138 8.48967 7.14062 8.79673 7.07954C9.10379 7.01846 9.42206 7.04981 9.7113 7.16962C10.0005 7.28942 10.2478 7.49231 10.4217 7.75262C10.5956 8.01293 10.6885 8.31897 10.6885 8.63205C10.6888 8.84014 10.6481 9.04626 10.5687 9.23861C10.4893 9.43097 10.3728 9.60578 10.2258 9.75304C10.0787 9.90031 9.90413 10.0171 9.71191 10.0969C9.51969 10.1766 9.31364 10.2176 9.10554 10.2176V10.215Z"/>
</mask>
<path d="M11.1282 10.3029L10.2323 9.54643L9.38946 10.5446L10.4726 11.275L11.1282 10.3029ZM11.7437 8.6382L12.9163 8.64658V8.6382H11.7437ZM6.46734 8.6382H5.29478L5.29484 8.64658L6.46734 8.6382ZM7.08292 10.3029L7.73651 11.2764L8.82339 10.5467L7.97879 9.54643L7.08292 10.3029ZM5.5 13.2779H6.67254L6.67254 13.2761L5.5 13.2779ZM6.02764 13.8056V14.9781V13.8056ZM6.55528 13.2779H7.72783L7.72781 13.2739L6.55528 13.2779ZM7.96232 11.002L8.48834 9.95411L7.96581 9.69181L7.44188 9.95132L7.96232 11.002ZM9.10247 11.2721V10.0996V11.2721ZM10.2426 11.002L10.763 9.95132L10.2391 9.69181L9.71659 9.95411L10.2426 11.002ZM11.6496 13.2779L10.4771 13.2739V13.2779H11.6496ZM12.1773 13.8056V14.9781V13.8056ZM12.7049 13.2779L11.5324 13.2747V13.2779H12.7049ZM9.10554 10.215H10.2781V9.04243H9.10554V10.215ZM10.6885 8.63205H9.51593L9.51593 8.634L10.6885 8.63205ZM9.10554 10.2176H7.93301V11.3901L9.10554 11.3901L9.10554 10.2176ZM12.024 11.0594C12.5943 10.3841 12.9099 9.5304 12.9162 8.64658L10.5712 8.62982C10.5688 8.96558 10.4489 9.28989 10.2323 9.54643L12.024 11.0594ZM12.9163 8.6382C12.9163 7.62753 12.5148 6.65826 11.8001 5.9436L10.1419 7.60182C10.4168 7.87668 10.5712 8.24948 10.5712 8.6382H12.9163ZM11.8001 5.9436C11.0855 5.22895 10.1162 4.82747 9.10554 4.82747V7.17253C9.49426 7.17253 9.86706 7.32695 10.1419 7.60182L11.8001 5.9436ZM9.10554 4.82747C8.09488 4.82747 7.1256 5.22895 6.41095 5.9436L8.06916 7.60182C8.34403 7.32695 8.71683 7.17253 9.10554 7.17253V4.82747ZM6.41095 5.9436C5.6963 6.65826 5.29481 7.62753 5.29481 8.6382H7.63988C7.63988 8.24948 7.7943 7.87668 8.06916 7.60182L6.41095 5.9436ZM5.29484 8.64658C5.30115 9.53039 5.61683 10.3841 6.18705 11.0594L7.97879 9.54643C7.76217 9.28989 7.64225 8.96558 7.63985 8.62982L5.29484 8.64658ZM6.42934 9.32943C5.78136 9.76447 5.25059 10.3525 4.88398 11.0415L6.95424 12.1431C7.13982 11.7943 7.4085 11.4966 7.73651 11.2764L6.42934 9.32943ZM4.88398 11.0415C4.51738 11.7305 4.32624 12.4993 4.32747 13.2798L6.67254 13.2761C6.67191 12.881 6.76867 12.4918 6.95424 12.1431L4.88398 11.0415ZM4.32747 13.2779C4.32747 13.7288 4.5066 14.1613 4.82544 14.4801L6.48365 12.8219C6.60459 12.9428 6.67254 13.1069 6.67254 13.2779H4.32747ZM4.82544 14.4801C5.14428 14.799 5.57672 14.9781 6.02764 14.9781V12.633C6.19869 12.633 6.36272 12.701 6.48365 12.8219L4.82544 14.4801ZM6.02764 14.9781C6.47857 14.9781 6.91101 14.799 7.22985 14.4801L5.57164 12.8219C5.69257 12.701 5.8566 12.633 6.02764 12.633V14.9781ZM7.22985 14.4801C7.54869 14.1613 7.72782 13.7288 7.72782 13.2779H5.38275C5.38275 13.1069 5.4507 12.9428 5.57164 12.8219L7.22985 14.4801ZM7.72781 13.2739C7.72694 13.0201 7.79721 12.7712 7.93065 12.5553L5.936 11.3222C5.57203 11.9109 5.38037 12.5898 5.38276 13.282L7.72781 13.2739ZM7.93065 12.5553C8.06409 12.3395 8.25537 12.1654 8.48276 12.0527L7.44188 9.95132C6.82166 10.2585 6.29996 10.7334 5.936 11.3222L7.93065 12.5553ZM7.43631 12.05C7.95337 12.3095 8.52392 12.4447 9.10247 12.4447V10.0996C8.88922 10.0996 8.67892 10.0498 8.48834 9.95411L7.43631 12.05ZM9.10247 12.4447C9.68102 12.4447 10.2516 12.3095 10.7686 12.05L9.71659 9.95411C9.52601 10.0498 9.31571 10.0996 9.10247 10.0996V12.4447ZM9.72217 12.0527C9.94957 12.1654 10.1408 12.3395 10.2743 12.5553L12.2689 11.3222C11.905 10.7334 11.3833 10.2585 10.763 9.95132L9.72217 12.0527ZM10.2743 12.5553C10.4077 12.7712 10.478 13.0201 10.4771 13.2739L12.8222 13.282C12.8246 12.5898 12.6329 11.9109 12.2689 11.3222L10.2743 12.5553ZM10.4771 13.2779C10.4771 13.7288 10.6562 14.1613 10.9751 14.4801L12.6333 12.8219C12.7542 12.9428 12.8222 13.1069 12.8222 13.2779H10.4771ZM10.9751 14.4801C11.2939 14.799 11.7264 14.9781 12.1773 14.9781V12.633C12.3483 12.633 12.5124 12.701 12.6333 12.8219L10.9751 14.4801ZM12.1773 14.9781C12.6282 14.9781 13.0607 14.799 13.3795 14.4801L11.7213 12.8219C11.8422 12.701 12.0062 12.633 12.1773 12.633V14.9781ZM13.3795 14.4801C13.6983 14.1613 13.8775 13.7288 13.8775 13.2779H11.5324C11.5324 13.1069 11.6003 12.9428 11.7213 12.8219L13.3795 14.4801ZM13.8775 13.2811C13.8796 12.5014 13.6897 11.7331 13.3246 11.0442L11.2525 12.1423C11.4374 12.4911 11.5335 12.88 11.5324 13.2747L13.8775 13.2811ZM13.3246 11.0442C12.9594 10.3552 12.4302 9.76676 11.7838 9.33078L10.4726 11.275C10.7998 11.4957 11.0677 11.7936 11.2525 12.1423L13.3246 11.0442ZM9.10554 9.04243C9.02438 9.04243 8.94503 9.01836 8.87755 8.97327L7.5747 10.9231C8.02783 11.2259 8.56057 11.3875 9.10554 11.3875V9.04243ZM8.87755 8.97327C8.81006 8.92818 8.75746 8.86408 8.7264 8.78909L6.55984 9.68651C6.76839 10.19 7.12156 10.6203 7.5747 10.9231L8.87755 8.97327ZM8.7264 8.78909C8.69534 8.7141 8.68721 8.63159 8.70304 8.55198L6.40304 8.09448C6.29672 8.62899 6.35128 9.18302 6.55984 9.68651L8.7264 8.78909ZM8.70304 8.55198C8.71888 8.47237 8.75796 8.39925 8.81536 8.34186L7.15714 6.68364C6.77179 7.069 6.50936 7.55998 6.40304 8.09448L8.70304 8.55198ZM8.81536 8.34186C8.87275 8.28446 8.94588 8.24538 9.02548 8.22954L8.56798 5.92954C8.03347 6.03586 7.5425 6.29829 7.15714 6.68364L8.81536 8.34186ZM9.02548 8.22954C9.10509 8.21371 9.1876 8.22184 9.26259 8.2529L10.16 6.08634C9.65652 5.87778 9.10249 5.82322 8.56798 5.92954L9.02548 8.22954ZM9.26259 8.2529C9.33758 8.28396 9.40167 8.33656 9.44677 8.40405L11.3966 7.1012C11.0938 6.64806 10.6635 6.29489 10.16 6.08634L9.26259 8.2529ZM9.44677 8.40405C9.49186 8.47153 9.51593 8.55088 9.51593 8.63205H11.861C11.861 8.08707 11.6994 7.55433 11.3966 7.1012L9.44677 8.40405ZM9.51593 8.634C9.51602 8.68795 9.50547 8.74139 9.48489 8.79126L11.6526 9.68597C11.7908 9.35113 11.8616 8.99233 11.861 8.63009L9.51593 8.634ZM9.48489 8.79126C9.46431 8.84113 9.43409 8.88645 9.39597 8.92463L11.0556 10.5815C11.3115 10.3251 11.5144 10.0208 11.6526 9.68597L9.48489 8.79126ZM9.39597 8.92463C9.35786 8.96281 9.31259 8.9931 9.26275 9.01377L10.1611 11.18C10.4957 11.0412 10.7996 10.8378 11.0556 10.5815L9.39597 8.92463ZM9.26275 9.01377C9.21292 9.03443 9.1595 9.04507 9.10555 9.04507L9.10554 11.3901C9.46778 11.3901 9.82647 11.3187 10.1611 11.18L9.26275 9.01377ZM10.2781 10.2176V10.215H7.93301V10.2176H10.2781Z" fill="white" mask="url(#path-3-inside-1)"/>
</svg>
