<svg width="100" height="100" viewBox="0 0 100 100" fill="none" xmlns="http://www.w3.org/2000/svg">
<path opacity="0.1" d="M50 100C77.6142 100 100 77.6142 100 50C100 22.3858 77.6142 0 50 0C22.3858 0 0 22.3858 0 50C0 77.6142 22.3858 100 50 100Z" fill="#EB5757"/>
<rect x="68" y="19" width="18" height="70" rx="3" transform="rotate(45 68 19)" fill="#EB5757"/>
<path d="M77.1935 28.1934L78.6066 29.6064C79.7781 30.778 79.7781 32.6775 78.6066 33.8491L33.3517 79.1039C32.1801 80.2755 30.2807 80.2755 29.1091 79.1039L27.696 77.6908L77.1935 28.1934Z" fill="#E23939"/>
<rect x="19" y="32" width="18" height="70" rx="3" transform="rotate(-45 19 32)" fill="#EB5757"/>
<path d="M46.1953 59.1953L49.729 55.6616L72.0311 77.9637L70.6188 79.3761C69.4472 80.5477 67.5477 80.5477 66.3761 79.3761L46.1953 59.1953Z" fill="#E23939"/>
<path d="M21.1213 34.1213C19.9497 32.9497 19.9497 31.0503 21.1213 29.8787L22.5337 28.4663L40.5337 46.4663L37 50L21.1213 34.1213Z" fill="#E23939"/>
<path d="M22.0389 64.9609L34.7669 77.6889L33.3518 79.1039C32.1802 80.2755 30.2807 80.2755 29.1091 79.1039L20.6239 70.6187C19.4523 69.4471 19.4523 67.5476 20.6239 66.376L22.0389 64.9609Z" fill="#E23939"/>
<path d="M64.9635 77.9634L77.6914 65.2355L79.1041 66.6481C80.2756 67.8197 80.2756 69.7192 79.1041 70.8907L70.6188 79.376C69.4472 80.5476 67.5477 80.5476 66.3761 79.376L64.9635 77.9634Z" fill="#E23939"/>
</svg>
