<svg width="12" height="12" viewBox="0 0 12 12" fill="none" xmlns="http://www.w3.org/2000/svg">
<path d="M6.39251 5.99983L10.9182 1.47433C11.0265 1.366 11.0265 1.18989 10.9182 1.08156C10.8099 0.973229 10.6337 0.973229 10.5254 1.08156L5.99972 5.60705L1.47404 1.081C1.3657 0.972673 1.18959 0.972673 1.08125 1.081C0.972916 1.18934 0.972916 1.36545 1.08125 1.47378L5.60693 5.99983L1.08125 10.5253C0.972916 10.6336 0.972916 10.8098 1.08125 10.9181C1.13514 10.9725 1.20626 10.9998 1.27737 10.9998C1.34848 10.9998 1.4196 10.9725 1.47404 10.9186L5.99972 6.3926L10.5254 10.9181C10.5799 10.9725 10.651 10.9998 10.7221 10.9998C10.7932 10.9998 10.8643 10.9725 10.9187 10.9186C11.0271 10.8103 11.0271 10.6342 10.9187 10.5259L6.39251 5.99983Z" stroke="#47642E"/>
</svg>
