<svg width="16" height="18" viewBox="0 0 16 18" fill="none" xmlns="http://www.w3.org/2000/svg">
<path d="M13.2356 2.33333C11.847 0.944705 9.96362 0.164581 7.9998 0.164581C6.03598 0.164581 4.1526 0.944705 2.76397 2.33333C1.37534 3.72196 0.595215 5.60535 0.595215 7.56917C0.595215 9.53299 1.37534 11.4164 2.76397 12.805L7.64563 17.6867C7.69207 17.7332 7.74721 17.77 7.80791 17.7952C7.86861 17.8204 7.93368 17.8333 7.99938 17.8333C8.06509 17.8333 8.13016 17.8204 8.19085 17.7952C8.25155 17.77 8.3067 17.7332 8.35313 17.6867L13.2348 12.805C14.6206 11.4149 15.3988 9.53218 15.399 7.56934C15.3991 5.6065 14.6212 3.72364 13.2356 2.33333ZM12.5281 12.0967L7.9998 16.6258L3.47147 12.0975C2.5758 11.2019 1.96584 10.0608 1.71871 8.81847C1.47158 7.57617 1.59839 6.28849 2.0831 5.11827C2.5678 3.94805 3.38864 2.94783 4.44181 2.24412C5.49497 1.54041 6.73316 1.16481 7.9998 1.16481C9.26644 1.16481 10.5046 1.54041 11.5578 2.24412C12.611 2.94783 13.4318 3.94805 13.9165 5.11827C14.4012 6.28849 14.528 7.57617 14.2809 8.81847C14.0338 10.0608 13.4238 11.2019 12.5281 12.0975V12.0967ZM7.9998 4.33333C7.40646 4.33333 6.82644 4.50928 6.33309 4.83893C5.83974 5.16857 5.45523 5.63711 5.22816 6.18528C5.0011 6.73346 4.94169 7.33666 5.05745 7.91861C5.1732 8.50055 5.45892 9.0351 5.87848 9.45466C6.29804 9.87421 6.83259 10.1599 7.41453 10.2757C7.99647 10.3914 8.59967 10.332 9.14785 10.105C9.69603 9.87791 10.1646 9.49339 10.4942 9.00004C10.8239 8.5067 10.9998 7.92668 10.9998 7.33333C10.9998 6.53769 10.6837 5.77462 10.1211 5.21201C9.55851 4.64941 8.79545 4.33333 7.9998 4.33333ZM7.9998 9.33333C7.60424 9.33333 7.21756 9.21604 6.88866 8.99627C6.55976 8.77651 6.30342 8.46415 6.15204 8.0987C6.00067 7.73325 5.96106 7.33112 6.03823 6.94315C6.1154 6.55519 6.30588 6.19883 6.58559 5.91912C6.86529 5.63942 7.22166 5.44893 7.60962 5.37176C7.99758 5.29459 8.39971 5.3342 8.76517 5.48558C9.13062 5.63695 9.44298 5.8933 9.66274 6.22219C9.8825 6.55109 9.9998 6.93777 9.9998 7.33333C9.9998 7.86377 9.78909 8.37248 9.41401 8.74755C9.03894 9.12262 8.53023 9.33333 7.9998 9.33333Z" fill="#47642E"/>
</svg>
