<svg width="17" height="18" viewBox="0 0 17 18" fill="none" xmlns="http://www.w3.org/2000/svg">
<path d="M6.83333 12.75V13.5833C6.83333 14.6 7.2372 15.575 7.95609 16.2939C8.67498 17.0128 9.65 17.4167 10.6667 17.4167H15.6667C16.0203 17.4167 16.3594 17.2762 16.6095 17.0261C16.8595 16.7761 17 16.437 17 16.0833V1.91667C17 1.56304 16.8595 1.22391 16.6095 0.973858C16.3594 0.723809 16.0203 0.583333 15.6667 0.583333H10.6667C9.65 0.583333 8.67498 0.987201 7.95609 1.70609C7.2372 2.42498 6.83333 3.4 6.83333 4.41667V5.25C6.83333 5.38261 6.88601 5.50978 6.97978 5.60355C7.07355 5.69732 7.20072 5.75 7.33333 5.75C7.46594 5.75 7.59312 5.69732 7.68689 5.60355C7.78065 5.50978 7.83333 5.38261 7.83333 5.25V4.41667C7.83333 3.66522 8.13184 2.94455 8.6632 2.4132C9.19455 1.88184 9.91522 1.58333 10.6667 1.58333H15.6667C15.7544 1.58545 15.838 1.62125 15.9 1.68331C15.9621 1.74537 15.9979 1.82893 16 1.91667V16.0833C15.9979 16.1711 15.9621 16.2546 15.9 16.3167C15.838 16.3788 15.7544 16.4146 15.6667 16.4167H10.6667C9.91522 16.4167 9.19455 16.1182 8.6632 15.5868C8.13184 15.0554 7.83333 14.3348 7.83333 13.5833V12.75C7.83333 12.6174 7.78065 12.4902 7.68689 12.3964C7.59312 12.3027 7.46594 12.25 7.33333 12.25C7.20072 12.25 7.07355 12.3027 6.97978 12.3964C6.88601 12.4902 6.83333 12.6174 6.83333 12.75ZM1.05833 8.775C1.08049 8.72285 1.11151 8.67492 1.15 8.63333L4.10833 5.66667C4.20226 5.57274 4.32966 5.51997 4.4625 5.51997C4.59534 5.51997 4.72273 5.57274 4.81666 5.66667C4.91059 5.7606 4.96336 5.88799 4.96336 6.02083C4.96336 6.15367 4.91059 6.28107 4.81666 6.375L2.7 8.49167H11.5C11.6326 8.49167 11.7598 8.54434 11.8536 8.63811C11.9473 8.73188 12 8.85906 12 8.99167C12 9.12427 11.9473 9.25145 11.8536 9.34522C11.7598 9.43899 11.6326 9.49167 11.5 9.49167H2.71666L4.83333 11.6167C4.92726 11.7106 4.98003 11.838 4.98003 11.9708C4.98003 12.1037 4.92726 12.2311 4.83333 12.325C4.7394 12.4189 4.612 12.4717 4.47917 12.4717C4.34633 12.4717 4.21893 12.4189 4.125 12.325L1.18333 9.38333C1.09157 9.31499 1.02755 9.21583 1.00306 9.10407C0.978561 8.9923 0.99523 8.87546 1.05 8.775H1.05833Z" fill="white"/>
</svg>
