<svg width="16" height="18" viewBox="0 0 16 18" fill="none" xmlns="http://www.w3.org/2000/svg">
<path d="M12.3725 -9.14348e-05H1.33472C1.19961 -9.14348e-05 1.07003 0.0535809 0.974493 0.149118C0.878955 0.244656 0.825283 0.374232 0.825283 0.509343V2.44095H0.509434C0.374324 2.44095 0.244747 2.49462 0.14921 2.59016C0.0536724 2.68569 0 2.81527 0 2.95038C0 3.08549 0.0536724 3.21507 0.14921 3.3106C0.244747 3.40614 0.374324 3.45981 0.509434 3.45981H0.826132V5.46614H0.509434C0.374324 5.46614 0.244747 5.51981 0.14921 5.61535C0.0536724 5.71088 0 5.84046 0 5.97557C0 6.11068 0.0536724 6.24026 0.14921 6.33579C0.244747 6.43133 0.374324 6.485 0.509434 6.485H0.826132V8.49047H0.509434C0.374324 8.49047 0.244747 8.54415 0.14921 8.63968C0.0536724 8.73522 0 8.8648 0 8.99991C0 9.13502 0.0536724 9.2646 0.14921 9.36013C0.244747 9.45567 0.374324 9.50934 0.509434 9.50934H0.826132V11.5157H0.509434C0.374324 11.5157 0.244747 11.5693 0.14921 11.6649C0.0536724 11.7604 0 11.89 0 12.0251C0 12.1602 0.0536724 12.2898 0.14921 12.3853C0.244747 12.4809 0.374324 12.5345 0.509434 12.5345H0.826132V14.5409H0.509434C0.374324 14.5409 0.244747 14.5945 0.14921 14.6901C0.0536724 14.7856 0 14.9152 0 15.0503C0 15.1854 0.0536724 15.315 0.14921 15.4105C0.244747 15.506 0.374324 15.5597 0.509434 15.5597H0.826132V17.4905C0.826132 17.6256 0.879804 17.7552 0.975342 17.8507C1.07088 17.9462 1.20046 17.9999 1.33557 17.9999H12.3733C12.7747 17.9999 13.1722 17.9208 13.543 17.7672C13.9139 17.6136 14.2508 17.3885 14.5346 17.1047C14.8185 16.8208 15.0436 16.4839 15.1972 16.113C15.3508 15.7422 15.4299 15.3447 15.4299 14.9433V3.05651C15.4299 2.65504 15.3508 2.2575 15.1972 1.8866C15.0435 1.5157 14.8183 1.17871 14.5343 0.894867C14.2504 0.611024 13.9134 0.385894 13.5424 0.232335C13.1715 0.0787761 12.7739 -0.000202954 12.3725 -9.14348e-05ZM4.40321 16.981H1.84415V15.5589H2.20755C2.34266 15.5589 2.47223 15.5052 2.56777 15.4097C2.66331 15.3141 2.71698 15.1845 2.71698 15.0494C2.71698 14.9143 2.66331 14.7847 2.56777 14.6892C2.47223 14.5937 2.34266 14.54 2.20755 14.54H1.84415V12.5337H2.20755C2.34266 12.5337 2.47223 12.48 2.56777 12.3845C2.66331 12.2889 2.71698 12.1594 2.71698 12.0242C2.71698 11.8891 2.66331 11.7596 2.56777 11.664C2.47223 11.5685 2.34266 11.5148 2.20755 11.5148H1.84415V9.50934H2.20755C2.34266 9.50934 2.47223 9.45567 2.56777 9.36013C2.66331 9.2646 2.71698 9.13502 2.71698 8.99991C2.71698 8.8648 2.66331 8.73522 2.56777 8.63968C2.47223 8.54415 2.34266 8.49047 2.20755 8.49047H1.84415V6.48415H2.20755C2.34266 6.48415 2.47223 6.43048 2.56777 6.33494C2.66331 6.23941 2.71698 6.10983 2.71698 5.97472C2.71698 5.83961 2.66331 5.71003 2.56777 5.6145C2.47223 5.51896 2.34266 5.46529 2.20755 5.46529H1.84415V3.45981H2.20755C2.34266 3.45981 2.47223 3.40614 2.56777 3.3106C2.66331 3.21507 2.71698 3.08549 2.71698 2.95038C2.71698 2.81527 2.66331 2.68569 2.56777 2.59016C2.47223 2.49462 2.34266 2.44095 2.20755 2.44095H1.84415V1.01878H4.40321V16.981ZM14.411 14.9433C14.411 15.4837 14.1963 16.0021 13.8142 16.3842C13.432 16.7664 12.9137 16.981 12.3733 16.981H5.42208V1.01878H12.3758C12.9163 1.01878 13.4346 1.23347 13.8167 1.61562C14.1989 1.99777 14.4136 2.51607 14.4136 3.05651L14.411 14.9433ZM12.6696 14.9433C12.6696 15.0102 12.6564 15.0764 12.6308 15.1383C12.6052 15.2001 12.5677 15.2562 12.5204 15.3035C12.4731 15.3508 12.4169 15.3884 12.3551 15.414C12.2933 15.4396 12.2271 15.4527 12.1602 15.4527H9.68434C9.54923 15.4527 9.41965 15.3991 9.32411 15.3035C9.22858 15.208 9.17491 15.0784 9.17491 14.9433C9.17491 14.8082 9.22858 14.6786 9.32411 14.5831C9.41965 14.4875 9.54923 14.4339 9.68434 14.4339H12.1602C12.2953 14.4339 12.4249 14.4875 12.5204 14.5831C12.616 14.6786 12.6696 14.8082 12.6696 14.9433Z" fill="white"/>
</svg>
