<svg width="20" height="19" viewBox="0 0 20 19" fill="none" xmlns="http://www.w3.org/2000/svg">
<path d="M19.7502 8.81104L11.8057 0.874076C11.3149 0.385443 10.6505 0.111115 9.95794 0.111115C9.26535 0.111115 8.60097 0.385443 8.11014 0.874076L0.165666 8.81104C0.113298 8.86341 0.0717576 8.92558 0.0434164 8.994C0.0150752 9.06242 0.000488281 9.13575 0.000488281 9.20981C0.000488281 9.28387 0.0150752 9.35721 0.0434164 9.42563C0.0717576 9.49405 0.113298 9.55622 0.165666 9.60859C0.271427 9.71435 0.41487 9.77376 0.56444 9.77376C0.638499 9.77376 0.711833 9.75918 0.780255 9.73084C0.848676 9.70249 0.910846 9.66095 0.963214 9.60859L1.93173 8.64101L2.5367 15.7203C2.5893 16.3739 2.88697 16.9835 3.37006 17.4268C3.85315 17.8702 4.48596 18.1146 5.14165 18.1111H14.7723C15.4284 18.1151 16.0616 17.8709 16.5451 17.4275C17.0286 16.9841 17.3265 16.3742 17.3792 15.7203L17.986 8.64101L18.9555 9.60953C19.0612 9.71529 19.2047 9.7747 19.3543 9.7747C19.5038 9.7747 19.6473 9.71529 19.753 9.60953C19.8588 9.50377 19.9182 9.36032 19.9182 9.21075C19.9182 9.06118 19.8588 8.91774 19.753 8.81198L19.7502 8.81104ZM16.2519 15.6235C16.2218 15.9954 16.0524 16.3422 15.7775 16.5944C15.5026 16.8466 15.1426 16.9857 14.7695 16.9838H5.14353C4.77095 16.985 4.41163 16.8456 4.13735 16.5934C3.86307 16.3413 3.69402 15.9949 3.66398 15.6235L2.97634 7.59922L8.90957 1.67256C9.18891 1.3948 9.56683 1.23889 9.96076 1.23889C10.3547 1.23889 10.7326 1.3948 11.0119 1.67256L16.9452 7.60016L16.2519 15.6235ZM6.60617 10.0163C6.60543 10.6794 6.80137 11.3278 7.16922 11.8794C7.53706 12.4311 8.06028 12.8613 8.67267 13.1156C9.28506 13.3699 9.9591 13.4368 10.6095 13.3079C11.26 13.179 11.8575 12.86 12.3267 12.3914C12.7958 11.9228 13.1154 11.3256 13.245 10.6753C13.3747 10.025 13.3085 9.35092 13.0549 8.73825C12.8013 8.12557 12.3717 7.60187 11.8205 7.23341C11.2692 6.86495 10.621 6.66827 9.95794 6.66827C9.06995 6.66927 8.21856 7.0222 7.5903 7.64975C6.96205 8.2773 6.60816 9.1283 6.60617 10.0163ZM12.1834 10.0163C12.1841 10.4564 12.0543 10.8868 11.8104 11.2531C11.5664 11.6194 11.2193 11.9051 10.813 12.074C10.4066 12.243 9.95928 12.2876 9.52755 12.2023C9.09582 12.117 8.6991 11.9055 8.38759 11.5947C8.07608 11.2838 7.86377 10.8875 7.77752 10.456C7.69128 10.0244 7.73498 9.577 7.90309 9.17029C8.0712 8.76358 8.35617 8.41587 8.72194 8.17116C9.08772 7.92646 9.51785 7.79574 9.95794 7.79555C10.547 7.79629 11.1118 8.03038 11.5287 8.44658C11.9456 8.86278 12.1807 9.42719 12.1824 10.0163H12.1834Z" fill="white"/>
</svg>
