<svg width="14" height="14" viewBox="0 0 14 14" fill="none" xmlns="http://www.w3.org/2000/svg">
<path d="M7.57328 6.76713L7.57339 1.39625C7.57339 1.26769 7.46879 1.16318 7.34009 1.16319C7.2114 1.16319 7.10679 1.2677 7.10679 1.39626L7.10668 6.76714L1.73022 6.76692C1.60152 6.76692 1.49691 6.87143 1.49691 7C1.49691 7.12857 1.60151 7.23307 1.73021 7.23307L7.10667 7.23328L7.10655 12.6042C7.10655 12.7327 7.21116 12.8372 7.33985 12.8372C7.4042 12.8376 7.46261 12.8115 7.50484 12.7693C7.54708 12.7271 7.57315 12.6688 7.57348 12.6045L7.57327 7.23327L12.9494 7.23316C13.0141 7.23316 13.0725 7.20712 13.1147 7.16492C13.157 7.12272 13.183 7.06437 13.1834 7.00008C13.1834 6.87152 13.0788 6.76701 12.9501 6.76702L7.57328 6.76713Z" stroke="white"/>
</svg>
