<svg width="12" height="12" viewBox="0 0 12 12" fill="none" xmlns="http://www.w3.org/2000/svg">
<path d="M6.39251 6.00007L10.9182 1.47458C11.0265 1.36624 11.0265 1.19014 10.9182 1.0818C10.8099 0.973473 10.6337 0.973473 10.5254 1.0818L5.99972 5.6073L1.47404 1.08125C1.3657 0.972917 1.18959 0.972917 1.08125 1.08125C0.972916 1.18958 0.972916 1.36569 1.08125 1.47402L5.60693 6.00007L1.08125 10.5256C0.972916 10.6339 0.972916 10.81 1.08125 10.9183C1.13514 10.9728 1.20626 11 1.27737 11C1.34848 11 1.41959 10.9728 1.47404 10.9189L5.99972 6.39284L10.5254 10.9183C10.5798 10.9728 10.651 11 10.7221 11C10.7932 11 10.8643 10.9728 10.9187 10.9189C11.0271 10.8106 11.0271 10.6344 10.9187 10.5261L6.39251 6.00007Z" stroke="#EB5757"/>
</svg>
