<svg width="12" height="12" viewBox="0 0 12 12" fill="none" xmlns="http://www.w3.org/2000/svg">
<path opacity="0.5" d="M8.35422 7.66095L8.07469 8.01041L8.39112 8.32684L11.4867 11.4224C11.5044 11.4402 11.5044 11.4689 11.4867 11.4867C11.4689 11.5044 11.4402 11.5044 11.4224 11.4867L8.32684 8.39112L8.01041 8.07469L7.66095 8.35422C6.90658 8.95767 5.95062 9.31818 4.90909 9.31818C2.47402 9.31818 0.5 7.34416 0.5 4.90909C0.5 2.47402 2.47402 0.5 4.90909 0.5C7.34416 0.5 9.31818 2.47402 9.31818 4.90909C9.31818 5.95062 8.95767 6.90658 8.35422 7.66095ZM4.90909 9.22727C7.29396 9.22727 9.22727 7.29396 9.22727 4.90909C9.22727 2.52422 7.29396 0.590909 4.90909 0.590909C2.52422 0.590909 0.590909 2.52422 0.590909 4.90909C0.590909 7.29396 2.52422 9.22727 4.90909 9.22727Z" stroke="#47642E"/>
</svg>
